<?xml version="1.0" encoding="UTF-8" standalone="no"?>
<!DOCTYPE svg PUBLIC "-//W3C//DTD SVG 1.1//EN" "http://www.w3.org/Graphics/SVG/1.1/DTD/svg11.dtd">
<!-- Created with Vectornator (http://vectornator.io/) -->
<svg height="100%" stroke-miterlimit="10" style="fill-rule:nonzero;clip-rule:evenodd;stroke-linecap:round;stroke-linejoin:round;" version="1.1" viewBox="128.505 32.5826 201.575 117.492" width="100%" xml:space="preserve" xmlns="http://www.w3.org/2000/svg" xmlns:vectornator="http://vectornator.io" xmlns:xlink="http://www.w3.org/1999/xlink">
<defs>
<linearGradient gradientTransform="matrix(1 0 0 1 0 0)" gradientUnits="userSpaceOnUse" id="LinearGradient" x1="128.505" x2="192.787" y1="91.3313" y2="91.3313">
<stop offset="0.473585" stop-color="#f9db29"/>
<stop offset="0.988018" stop-color="#f5ba31"/>
</linearGradient>
<linearGradient gradientTransform="matrix(1 0 0 1 0 0)" gradientUnits="userSpaceOnUse" id="LinearGradient_2" x1="197.151" x2="261.434" y1="91.3313" y2="91.3313">
<stop offset="0.473585" stop-color="#f9db29"/>
<stop offset="0.988018" stop-color="#f5ba31"/>
</linearGradient>
<linearGradient gradientTransform="matrix(1 0 0 1 0 0)" gradientUnits="userSpaceOnUse" id="LinearGradient_3" x1="265.798" x2="330.08" y1="91.3313" y2="91.3313">
<stop offset="0.473585" stop-color="#f9db29"/>
<stop offset="0.988018" stop-color="#f5ba31"/>
</linearGradient>
<linearGradient gradientTransform="matrix(1 0 0 1 0 0)" gradientUnits="userSpaceOnUse" id="LinearGradient_4" x1="196.121" x2="261.983" y1="91.3264" y2="91.3264">
<stop offset="0.473585" stop-color="#f9db29"/>
<stop offset="0.988018" stop-color="#f5ba31"/>
</linearGradient>
</defs>
<clipPath id="ArtboardFrame">
<rect height="117.492" width="201.575" x="128.505" y="32.5826"/>
</clipPath>
<g clip-path="url(#ArtboardFrame)" id="Layer" vectornator:layerName="Layer">
<g opacity="1" vectornator:layerName="Agrupar 16">
<path d="M159.052 77.9041C161.401 77.9041 162.576 76.7292 162.576 74.3795L162.576 57.9312C162.576 56.7004 161.961 56.085 160.73 56.085C159.387 56.085 158.716 56.7004 158.716 57.9312L158.716 74.0438L128.505 74.0438L128.505 42.6579C128.505 39.6367 129.428 37.2031 131.274 35.3568C133.121 33.5106 135.554 32.5875 138.575 32.5875L182.717 32.5875C185.738 32.5875 188.172 33.5106 190.018 35.3568C191.864 37.2031 192.787 39.6367 192.787 42.6579L192.787 76.5614C192.787 79.0231 192.172 81.121 190.941 82.8554C189.71 84.5897 188.032 85.7366 185.906 86.2961C188.032 86.8556 189.71 87.9745 190.941 89.6529C192.172 91.3313 192.787 93.4013 192.787 95.8629L192.787 140.005C192.787 143.026 191.864 145.459 190.018 147.306C188.172 149.152 185.738 150.075 182.717 150.075L138.575 150.075C135.554 150.075 133.121 149.152 131.274 147.306C129.428 145.459 128.505 143.026 128.505 140.005L128.505 108.115L158.716 108.115L158.716 124.731C158.716 125.962 159.387 126.578 160.73 126.578C161.961 126.578 162.576 125.962 162.576 124.731L162.576 107.78C162.576 105.43 161.401 104.255 159.052 104.255L140.925 104.255L140.925 77.9041L159.052 77.9041Z" fill="url(#LinearGradient)" fill-rule="nonzero" opacity="1" stroke="none"/>
<path d="M261.434 150.075L231.223 150.075L231.223 125.906L207.222 125.906C204.201 125.906 201.767 124.983 199.921 123.137C198.074 121.291 197.151 118.857 197.151 115.836L197.151 32.5875L227.362 32.5875L227.362 99.5554C227.362 101.458 228.313 102.409 230.216 102.409L231.223 102.409L231.223 32.5875L261.434 32.5875L261.434 150.075Z" fill="url(#LinearGradient_2)" fill-rule="nonzero" opacity="1" stroke="none"/>
<path d="M296.344 77.9041C298.694 77.9041 299.869 76.7292 299.869 74.3795L299.869 57.9312C299.869 56.7004 299.254 56.085 298.023 56.085C296.68 56.085 296.009 56.7004 296.009 57.9312L296.009 74.0438L265.798 74.0438L265.798 42.6579C265.798 39.6367 266.721 37.2031 268.567 35.3568C270.413 33.5106 272.847 32.5875 275.868 32.5875L320.01 32.5875C323.031 32.5875 325.464 33.5106 327.311 35.3568C329.157 37.2031 330.08 39.6367 330.08 42.6579L330.08 76.5614C330.08 79.0231 329.465 81.121 328.234 82.8554C327.003 84.5897 325.325 85.7366 323.199 86.2961C325.325 86.8556 327.003 87.9745 328.234 89.6529C329.465 91.3313 330.08 93.4013 330.08 95.8629L330.08 140.005C330.08 143.026 329.157 145.459 327.311 147.306C325.464 149.152 323.031 150.075 320.01 150.075L275.868 150.075C272.847 150.075 270.413 149.152 268.567 147.306C266.721 145.459 265.798 143.026 265.798 140.005L265.798 108.115L296.009 108.115L296.009 124.731C296.009 125.962 296.68 126.578 298.023 126.578C299.254 126.578 299.869 125.962 299.869 124.731L299.869 107.78C299.869 105.43 298.694 104.255 296.344 104.255L278.218 104.255L278.218 77.9041L296.344 77.9041Z" fill="url(#LinearGradient_3)" fill-rule="nonzero" opacity="1" stroke="none"/>
<path d="M224.819 32.5826L196.121 97.6203L196.121 129.24L234.559 129.24L234.559 150.07L261.983 150.07L261.983 32.5826L224.819 32.5826ZM234.559 75.7413L234.559 97.6203L225.568 97.6203L234.559 75.7413Z" fill="url(#LinearGradient_4)" fill-rule="nonzero" opacity="0" stroke="none" vectornator:layerName="Curva 1"/>
</g>
</g>
</svg>
