<?xml version="1.0" encoding="UTF-8" standalone="no"?>
<!DOCTYPE svg PUBLIC "-//W3C//DTD SVG 1.1//EN" "http://www.w3.org/Graphics/SVG/1.1/DTD/svg11.dtd">
<!-- Created with Vectornator (http://vectornator.io/) -->
<svg height="100%" stroke-miterlimit="10" style="fill-rule:nonzero;clip-rule:evenodd;stroke-linecap:round;stroke-linejoin:round;" version="1.1" viewBox="191.481 101.327 442.154 73.0812" width="100%" xml:space="preserve" xmlns="http://www.w3.org/2000/svg" xmlns:vectornator="http://vectornator.io" xmlns:xlink="http://www.w3.org/1999/xlink">
<defs/>
<clipPath id="ArtboardFrame">
<rect height="73.0812" width="442.154" x="191.481" y="101.327"/>
</clipPath>
<g clip-path="url(#ArtboardFrame)" id="Layer" vectornator:layerName="Layer">
<g opacity="1" vectornator:layerName="Agrupar 6">
<g opacity="1" vectornator:layerName="Agrupar 4">
<g opacity="0" vectornator:layerName="Agrupar 2">
<path d="M237.849 108.521C234.112 105.367 229.292 103.411 216.833 103.411L195.286 103.411C194.82 103.411 194.442 103.789 194.442 104.255L194.442 172.399C194.442 172.865 194.82 173.243 195.286 173.243L211.377 173.243C211.843 173.243 212.221 172.865 212.221 172.399L212.221 152.359C212.221 151.893 212.598 151.515 213.065 151.515L218.756 151.515C229.605 151.515 234.128 149.387 238.679 145.462C243.002 141.699 245.908 134.313 245.908 127.088C245.908 119.627 242.97 112.86 237.849 108.521ZM224.892 134.43C222.646 135.442 219.924 135.442 218.298 135.442L213.065 135.442C212.598 135.442 212.221 135.063 212.221 134.597L212.221 120.33C212.221 119.864 212.598 119.486 213.065 119.486L217.657 119.486C219.534 119.486 222.371 119.486 224.711 120.497C227.503 121.707 228.86 123.955 228.86 127.369C228.86 129.774 228.171 132.953 224.892 134.43Z" fill="#05a906" fill-rule="nonzero" opacity="1" stroke="none"/>
<path d="M191.481 119.47L214.919 119.47L214.919 135.437L191.481 135.437L191.481 119.47Z" fill="#2f55a4" fill-rule="nonzero" opacity="1" stroke="none" vectornator:layerName="Retângulo 1"/>
</g>
<g opacity="1" vectornator:layerName="Agrupar 1">
<path d="M195.281 103.406C194.815 103.406 194.438 103.784 194.438 104.25L194.438 119.469L214.906 119.469L214.906 119.5L217.656 119.5C219.534 119.5 222.38 119.488 224.719 120.5C227.511 121.71 228.875 123.961 228.875 127.375C228.875 129.781 228.186 132.96 224.906 134.438C222.66 135.449 219.938 135.437 218.312 135.438L214.906 135.438L213.062 135.438L194.438 135.438L194.438 172.406C194.438 172.872 194.815 173.25 195.281 173.25L211.375 173.25C211.841 173.25 212.219 172.872 212.219 172.406L212.219 152.344C212.219 151.878 212.596 151.5 213.062 151.5L218.75 151.5C229.599 151.5 234.136 149.394 238.688 145.469C243.01 141.705 245.906 134.319 245.906 127.094C245.906 119.633 242.965 112.87 237.844 108.531C234.107 105.377 229.302 103.406 216.844 103.406L195.281 103.406Z" fill="#05a906" fill-rule="nonzero" opacity="1" stroke="none" vectornator:layerName="Curva 1"/>
</g>
<path d="M273.109 119.048C257.633 119.048 245.042 131.466 245.042 146.728C245.042 161.992 257.633 174.408 273.109 174.408C288.586 174.408 301.177 161.992 301.177 146.728C301.177 131.466 288.586 119.048 273.109 119.048ZM273.109 158.796C266.362 158.796 260.873 153.382 260.873 146.728C260.873 140.075 266.362 134.661 273.109 134.661C279.857 134.661 285.346 140.075 285.346 146.728C285.346 153.382 279.857 158.796 273.109 158.796Z" fill="#ffffff" fill-rule="nonzero" opacity="1" stroke="none"/>
<path d="M331.976 119.891C328.487 119.936 324.345 120.386 320.844 122.565C320.564 122.739 320.203 122.537 320.203 122.207L320.203 120.732C320.203 120.266 319.824 119.887 319.358 119.887L304.586 119.887C304.12 119.887 303.742 120.266 303.742 120.732L303.742 171.906C303.742 172.372 304.12 172.75 304.586 172.75L320.351 172.75C320.817 172.75 321.195 172.372 321.195 171.906L321.195 142.157C321.195 140.108 321.195 138.49 322.05 136.661C322.366 135.951 323.466 134.487 325.367 134.028C327.071 133.617 329.961 133.809 331.408 133.944C331.889 133.988 332.306 133.62 332.326 133.137L332.83 120.771C332.85 120.286 332.461 119.885 331.976 119.891Z" fill="#ffffff" fill-rule="nonzero" opacity="1" stroke="none"/>
<path d="M367.894 159.006L365.021 159.006C363.454 159.006 362.277 158.616 361.522 157.847C360.233 156.533 360.306 154.332 360.36 152.726L360.371 152.36C360.375 152.228 360.377 139.26 360.378 134.87C360.378 134.404 360.756 134.03 361.222 134.03L366.709 134.03C367.175 134.03 367.553 133.652 367.553 133.186L367.553 120.678C367.553 120.212 367.175 119.834 366.709 119.834L361.222 119.834C360.756 119.834 360.378 119.456 360.378 118.99L360.378 104.489C360.378 104.023 360 103.645 359.534 103.645L344.761 103.645C344.295 103.645 343.917 104.023 343.917 104.489L343.917 118.99C343.917 119.456 343.539 119.834 343.073 119.834L337.586 119.834C337.12 119.834 336.742 120.212 336.742 120.678L336.742 133.185C336.742 133.651 337.12 134.029 337.586 134.029L343.073 134.029C343.539 134.029 343.917 134.407 343.917 134.873L343.917 160.254C343.917 168.496 348.662 173.102 357.638 173.573C357.709 173.577 357.805 173.579 357.923 173.579C359.396 173.579 364.242 173.303 366.053 173.197C366.451 173.173 366.777 172.875 366.837 172.48L368.728 159.975C368.806 159.465 368.411 159.005 367.894 159.006Z" fill="#ffffff" fill-rule="nonzero" opacity="1" stroke="none"/>
<path d="M429.087 119.858L414.315 119.858C413.849 119.858 413.471 120.236 413.471 120.702L413.471 122.313C413.471 122.639 413.121 122.837 412.838 122.677C408.603 120.283 403.818 119.025 398.909 119.025C383.433 119.025 370.842 131.442 370.842 146.705C370.842 161.968 383.433 174.385 398.909 174.385C403.819 174.385 408.603 173.127 412.838 170.733C413.12 170.573 413.471 170.771 413.471 171.097L413.471 171.876C413.471 172.342 413.849 172.72 414.315 172.72L429.087 172.72C429.554 172.72 429.931 172.342 429.931 171.876L429.931 120.702C429.931 120.235 429.554 119.858 429.087 119.858ZM401.442 159.401C394.344 159.401 388.569 153.705 388.569 146.705C388.569 139.705 394.344 134.01 401.442 134.01C408.54 134.01 413.47 139.705 413.47 146.705C413.47 153.705 408.54 159.401 401.442 159.401Z" fill="#ffffff" fill-rule="nonzero" opacity="1" stroke="none"/>
<path d="M452.503 103.238L436.886 103.238C436.42 103.238 436.042 103.616 436.042 104.082L436.042 171.906C436.042 172.372 436.42 172.75 436.886 172.75L452.503 172.75C452.969 172.75 453.347 172.372 453.347 171.906L453.347 104.082C453.347 103.616 452.969 103.238 452.503 103.238Z" fill="#ffffff" fill-rule="nonzero" opacity="1" stroke="none"/>
</g>
<g opacity="1" vectornator:layerName="Agrupar 3">
<path d="M524.434 149.728L524.434 149.67C524.433 149.556 524.427 149.444 524.422 149.333L524.411 149C524.409 148.94 524.408 148.88 524.405 148.818L524.388 148.505C524.37 148.214 524.346 147.925 524.316 147.636C524.297 147.451 524.274 147.266 524.249 147.081C524.23 146.932 524.209 146.782 524.187 146.632C523.557 142.473 521.725 138.525 518.888 135.215C518.693 134.987 518.494 134.762 518.289 134.54C518.205 134.449 518.12 134.358 518.035 134.269C517.913 134.141 517.789 134.013 517.664 133.887C517.631 133.853 517.592 133.815 517.55 133.773C517.239 133.469 517.196 132.975 517.467 132.635C519.527 130.051 520.869 127.074 521.366 123.959C521.386 123.833 521.404 123.706 521.421 123.581C521.443 123.425 521.463 123.269 521.481 123.11C521.507 122.867 521.529 122.623 521.545 122.378C521.551 122.289 521.555 122.201 521.56 122.112C521.575 121.817 521.585 121.521 521.585 121.223C521.585 110.252 511.429 101.327 498.944 101.327C489.721 101.327 481.496 106.183 477.989 113.697C477.13 115.538 476.534 117.826 476.32 119.875C476.276 120.292 476.542 120.678 476.948 120.784L489.916 124.16C490.398 124.286 490.883 123.97 490.96 123.478C491.191 121.99 491.594 120.46 492.166 119.374C492.529 118.627 493.013 117.96 493.617 117.38C494.041 116.954 494.43 116.672 494.706 116.498L495.083 116.301C495.858 115.895 496.695 115.6 497.564 115.495C501.792 114.982 505.4 118.283 505.4 122.411C505.4 126.231 502.291 129.356 498.471 129.378L494.916 129.379C494.447 129.379 494.068 129.762 494.073 130.231L494.165 139.952C494.169 140.415 494.546 140.788 495.009 140.788L498.625 140.788L498.625 140.79C503.557 140.815 507.516 144.951 507.248 149.947C507.004 154.471 503.186 158.109 498.655 158.147C495.299 158.174 492.381 156.295 490.912 153.529C490.203 152.492 489.507 151.153 489.08 149.515C488.963 149.066 488.512 148.79 488.061 148.9L474.389 152.391C473.976 152.496 473.706 152.892 473.76 153.314C473.799 153.624 473.839 153.925 473.881 154.138C473.969 154.585 474.079 155.048 474.215 155.554C476.471 163.957 483.494 170.527 492.544 172.7C494.628 173.2 496.781 173.454 498.944 173.454C501.108 173.454 503.261 173.2 505.345 172.7C514.904 170.405 522.23 163.116 524.01 154.13C524.291 152.708 524.434 151.275 524.434 149.871L524.433 149.77L524.434 149.728Z" fill="#ffffff" fill-rule="nonzero" opacity="1" stroke="none"/>
<path d="M578.271 145.786L575.157 145.786C574.688 145.786 574.309 145.403 574.313 144.934L574.71 103.413C574.715 102.944 574.335 102.561 573.866 102.561L548.511 102.561C548.175 102.561 547.87 102.761 547.737 103.069L528.323 147.804C528.277 147.91 528.254 148.024 528.254 148.14L528.254 159.646C528.254 160.112 528.632 160.49 529.098 160.49L556.035 160.49C556.512 160.49 556.894 160.885 556.879 161.361L556.554 171.599C556.538 172.075 556.921 172.47 557.397 172.47L573.461 172.47C573.927 172.47 574.305 172.091 574.305 171.625L574.305 161.335C574.305 160.869 574.683 160.491 575.149 160.491L578.271 160.491C578.737 160.491 579.115 160.113 579.115 159.647L579.115 146.63C579.115 146.164 578.737 145.786 578.271 145.786ZM558.228 144.621C558.221 145.082 557.846 145.453 557.384 145.453L547.61 145.453C546.999 145.453 546.591 144.824 546.838 144.266L556.96 121.487C557.333 120.648 558.589 120.924 558.575 121.843L558.228 144.621Z" fill="#05a906" fill-rule="nonzero" opacity="1" stroke="none"/>
<path d="M633.634 149.728L633.634 149.67C633.633 149.556 633.627 149.444 633.622 149.333L633.611 149C633.609 148.94 633.608 148.88 633.605 148.818L633.588 148.505C633.57 148.214 633.546 147.925 633.516 147.636C633.497 147.451 633.474 147.266 633.449 147.081C633.43 146.932 633.409 146.782 633.387 146.632C632.757 142.473 630.925 138.525 628.088 135.215C627.893 134.987 627.694 134.762 627.489 134.54C627.405 134.449 627.32 134.358 627.235 134.269C627.113 134.141 626.989 134.013 626.864 133.887C626.831 133.853 626.792 133.815 626.75 133.773C626.439 133.469 626.396 132.975 626.667 132.635C628.727 130.051 630.069 127.074 630.566 123.959C630.586 123.833 630.604 123.706 630.621 123.581C630.643 123.425 630.663 123.269 630.681 123.11C630.707 122.867 630.729 122.623 630.745 122.378C630.751 122.289 630.755 122.201 630.76 122.112C630.775 121.817 630.785 121.521 630.785 121.223C630.785 110.252 620.629 101.327 608.144 101.327C598.921 101.327 590.696 106.183 587.189 113.697C586.33 115.538 585.734 117.826 585.52 119.875C585.476 120.292 585.742 120.678 586.148 120.784L599.116 124.16C599.598 124.286 600.083 123.97 600.16 123.478C600.391 121.99 600.794 120.46 601.366 119.374C601.729 118.627 602.213 117.96 602.817 117.38C603.241 116.954 603.63 116.672 603.906 116.498L604.283 116.301C605.058 115.895 605.895 115.6 606.764 115.495C610.992 114.982 614.6 118.283 614.6 122.411C614.6 126.231 611.491 129.356 607.671 129.378L604.116 129.379C603.647 129.379 603.268 129.762 603.273 130.231L603.365 139.952C603.369 140.415 603.746 140.788 604.209 140.788L607.825 140.788L607.825 140.79C612.757 140.815 616.716 144.951 616.448 149.947C616.204 154.471 612.386 158.109 607.855 158.147C604.499 158.174 601.581 156.295 600.112 153.529C599.403 152.492 598.707 151.153 598.28 149.515C598.163 149.066 597.712 148.79 597.261 148.9L583.589 152.391C583.176 152.496 582.906 152.892 582.96 153.314C582.999 153.624 583.039 153.925 583.081 154.138C583.169 154.585 583.279 155.048 583.415 155.554C585.671 163.957 592.694 170.527 601.744 172.7C603.828 173.2 605.981 173.454 608.144 173.454C610.308 173.454 612.461 173.2 614.545 172.7C624.104 170.405 631.43 163.116 633.21 154.13C633.491 152.708 633.634 151.275 633.634 149.871L633.633 149.77L633.634 149.728Z" fill="#ffffff" fill-rule="nonzero" opacity="1" stroke="none"/>
</g>
</g>
</g>
</svg>
