<?xml version="1.0" encoding="UTF-8" standalone="no"?>
<!DOCTYPE svg PUBLIC "-//W3C//DTD SVG 1.1//EN" "http://www.w3.org/Graphics/SVG/1.1/DTD/svg11.dtd">
<!-- Created with Vectornator (http://vectornator.io/) -->
<svg height="100%" stroke-miterlimit="10" style="fill-rule:nonzero;clip-rule:evenodd;stroke-linecap:round;stroke-linejoin:round;" version="1.1" viewBox="481.969 395.813 289.656 113.531" width="100%" xml:space="preserve" xmlns="http://www.w3.org/2000/svg" xmlns:vectornator="http://vectornator.io" xmlns:xlink="http://www.w3.org/1999/xlink">
<defs/>
<clipPath id="ArtboardFrame">
<rect height="113.531" width="289.656" x="481.969" y="395.813"/>
</clipPath>
<g clip-path="url(#ArtboardFrame)" id="Layer" vectornator:layerName="Layer">
<g opacity="1" vectornator:layerName="Agrupar 17">
<path d="M485.156 395.813C483.395 395.813 481.969 398.763 481.969 402.406L481.969 502.719C481.969 506.362 483.395 509.344 485.156 509.344L566.219 509.344C567.98 509.344 569.406 506.362 569.406 502.719L569.406 402.406C569.406 398.763 567.98 395.813 566.219 395.813L485.156 395.813ZM524.125 409.406C539.731 409.406 552.438 420.567 552.438 434.281C552.438 434.654 552.425 435.038 552.406 435.406C552.4 435.518 552.382 435.608 552.375 435.719C552.355 436.025 552.314 436.353 552.281 436.656C552.259 436.855 552.246 437.055 552.219 437.25C552.198 437.406 552.181 437.561 552.156 437.719C551.535 441.612 549.856 445.333 547.281 448.562C546.943 448.988 546.986 449.589 547.375 449.969C547.427 450.021 547.49 450.083 547.531 450.125C547.687 450.282 547.847 450.434 548 450.594C548.106 450.705 548.208 450.824 548.312 450.938C548.569 451.215 548.819 451.496 549.062 451.781C552.609 455.919 554.9 460.864 555.688 466.063C555.715 466.25 555.726 466.439 555.75 466.625C555.781 466.856 555.82 467.081 555.844 467.313C555.881 467.674 555.915 468.011 555.938 468.375L555.938 468.781C555.941 468.859 555.966 468.925 555.969 469L555.969 469.438C555.975 469.576 555.999 469.701 556 469.844L556 469.906L556 469.969L556 470.094C556 471.849 555.82 473.629 555.469 475.406C553.244 486.639 544.074 495.756 532.125 498.625C529.52 499.25 526.83 499.563 524.125 499.563C521.421 499.563 518.73 499.25 516.125 498.625C504.813 495.909 496.039 487.691 493.219 477.188C493.049 476.555 492.891 475.996 492.781 475.438C492.729 475.171 492.705 474.794 492.656 474.406C492.589 473.879 492.921 473.381 493.438 473.25L510.531 468.875C511.095 468.737 511.635 469.095 511.781 469.656C512.315 471.704 513.208 473.36 514.094 474.656C515.93 478.114 519.555 480.471 523.75 480.438C529.414 480.39 534.195 475.843 534.5 470.188C534.835 463.942 529.884 458.781 523.719 458.75L519.219 458.75C518.64 458.75 518.161 458.266 518.156 457.688L518.031 445.563C518.025 444.976 518.507 444.469 519.094 444.469L523.531 444.469C528.306 444.441 532.188 440.556 532.188 435.781C532.187 430.621 527.691 426.484 522.406 427.125C521.32 427.256 520.281 427.618 519.312 428.125L518.812 428.375C518.468 428.593 517.999 428.936 517.469 429.469C516.714 430.194 516.11 431.035 515.656 431.969C514.941 433.326 514.445 435.234 514.156 437.094C514.06 437.709 513.446 438.126 512.844 437.969L496.625 433.75C496.117 433.617 495.789 433.115 495.844 432.594C496.111 430.032 496.864 427.176 497.938 424.875C502.321 415.482 512.596 409.406 524.125 409.406Z" fill="#ffffff" fill-rule="nonzero" opacity="1" stroke="none" vectornator:layerName="Curva 3"/>
<path d="M586.281 395.813C584.52 395.813 583.094 398.763 583.094 402.406L583.094 502.719C583.094 506.362 584.52 509.344 586.281 509.344L667.312 509.344C669.074 509.344 670.5 506.362 670.5 502.719L670.5 402.406C670.5 398.763 669.074 395.813 667.312 395.813L586.281 395.813ZM620.312 410.969L652 410.969C652.587 410.969 653.068 411.445 653.062 412.031L652.562 463.938C652.557 464.524 653.007 465 653.594 465L657.5 465C658.083 465 658.562 465.449 658.562 466.031L658.562 482.313C658.563 482.895 658.082 483.375 657.5 483.375L653.594 483.375C653.011 483.375 652.531 483.855 652.531 484.438L652.531 497.281C652.531 497.864 652.082 498.344 651.5 498.344L631.406 498.344C630.811 498.344 630.325 497.846 630.344 497.25L630.75 484.469C630.769 483.874 630.315 483.375 629.719 483.375L596.031 483.375C595.449 483.375 594.969 482.895 594.969 482.313L594.969 467.938C594.969 467.793 595.005 467.632 595.062 467.5L619.344 411.594C619.511 411.208 619.892 410.969 620.312 410.969ZM632.062 434.031C631.614 433.932 631.108 434.1 630.875 434.625L618.219 463.094C617.909 463.791 618.424 464.563 619.188 464.563L631.406 464.563C631.983 464.562 632.429 464.108 632.438 463.531L632.875 435.063C632.884 434.488 632.511 434.13 632.062 434.031Z" fill="#ffffff" fill-rule="nonzero" opacity="1" stroke="none" vectornator:layerName="Curva 2"/>
<path d="M687.375 395.813C685.614 395.813 684.188 398.763 684.188 402.406L684.188 502.719C684.187 506.362 685.614 509.344 687.375 509.344L768.438 509.344C770.199 509.344 771.625 506.362 771.625 502.719L771.625 402.406C771.625 398.763 770.199 395.813 768.438 395.813L687.375 395.813ZM726.625 409.406C742.231 409.406 754.938 420.567 754.938 434.281C754.937 434.654 754.925 435.038 754.906 435.406C754.9 435.518 754.882 435.608 754.875 435.719C754.855 436.025 754.814 436.353 754.781 436.656C754.759 436.855 754.746 437.055 754.719 437.25C754.697 437.406 754.681 437.561 754.656 437.719C754.035 441.612 752.356 445.333 749.781 448.562C749.443 448.988 749.486 449.589 749.875 449.969C749.927 450.021 749.99 450.083 750.031 450.125C750.187 450.282 750.347 450.434 750.5 450.594C750.606 450.705 750.708 450.824 750.812 450.938C751.069 451.215 751.319 451.496 751.562 451.781C755.109 455.919 757.4 460.864 758.188 466.063C758.215 466.25 758.226 466.439 758.25 466.625C758.281 466.856 758.32 467.081 758.344 467.313C758.381 467.674 758.415 468.011 758.438 468.375L758.438 468.781C758.441 468.859 758.466 468.925 758.469 469L758.469 469.438C758.475 469.576 758.499 469.701 758.5 469.844L758.5 469.906L758.5 469.969L758.5 470.094C758.5 471.849 758.32 473.629 757.969 475.406C755.744 486.639 746.574 495.756 734.625 498.625C732.02 499.25 729.33 499.563 726.625 499.563C723.921 499.563 721.23 499.25 718.625 498.625C707.312 495.909 698.539 487.691 695.719 477.188C695.549 476.555 695.391 475.996 695.281 475.438C695.229 475.171 695.205 474.794 695.156 474.406C695.089 473.879 695.421 473.381 695.938 473.25L713.031 468.875C713.595 468.737 714.135 469.095 714.281 469.656C714.815 471.704 715.708 473.36 716.594 474.656C718.43 478.114 722.055 480.471 726.25 480.438C731.914 480.39 736.695 475.843 737 470.188C737.335 463.942 732.384 458.781 726.219 458.75L721.719 458.75C721.14 458.75 720.661 458.266 720.656 457.688L720.531 445.563C720.525 444.976 721.007 444.469 721.594 444.469L726.031 444.469C730.806 444.441 734.688 440.556 734.688 435.781C734.687 430.621 730.191 426.484 724.906 427.125C723.82 427.256 722.781 427.618 721.812 428.125L721.312 428.375C720.967 428.593 720.499 428.936 719.969 429.469C719.214 430.194 718.61 431.035 718.156 431.969C717.441 433.326 716.945 435.234 716.656 437.094C716.56 437.709 715.946 438.126 715.344 437.969L699.125 433.75C698.617 433.617 698.289 433.115 698.344 432.594C698.611 430.032 699.364 427.176 700.438 424.875C704.821 415.482 715.096 409.406 726.625 409.406Z" fill="#ffffff" fill-rule="nonzero" opacity="1" stroke="none" vectornator:layerName="Curva 1"/>
</g>
</g>
</svg>
