<?xml version="1.0" encoding="UTF-8" standalone="no"?>
<!DOCTYPE svg PUBLIC "-//W3C//DTD SVG 1.1//EN" "http://www.w3.org/Graphics/SVG/1.1/DTD/svg11.dtd">
<!-- Created with Vectornator (http://vectornator.io/) -->
<svg height="100%" stroke-miterlimit="10" style="fill-rule:nonzero;clip-rule:evenodd;stroke-linecap:round;stroke-linejoin:round;" version="1.1" viewBox="128.505 192.962 201.575 117.5" width="100%" xml:space="preserve" xmlns="http://www.w3.org/2000/svg" xmlns:vectornator="http://vectornator.io" xmlns:xlink="http://www.w3.org/1999/xlink">
<defs/>
<clipPath id="ArtboardFrame">
<rect height="117.5" width="201.575" x="128.505" y="192.962"/>
</clipPath>
<g clip-path="url(#ArtboardFrame)" id="Layer" vectornator:layerName="Layer">
<g opacity="1" vectornator:layerName="Agrupar 13">
<path d="M159.052 238.282C161.401 238.282 162.576 237.107 162.576 234.757L162.576 218.309C162.576 217.078 161.961 216.463 160.73 216.463C159.387 216.463 158.716 217.078 158.716 218.309L158.716 234.422L128.505 234.422L128.505 203.036C128.505 200.015 129.428 197.581 131.274 195.735C133.121 193.889 135.554 192.965 138.575 192.965L182.717 192.965C185.738 192.965 188.172 193.889 190.018 195.735C191.864 197.581 192.787 200.015 192.787 203.036L192.787 236.939C192.787 239.401 192.172 241.499 190.941 243.233C189.71 244.968 188.032 246.115 185.906 246.674C188.032 247.234 189.71 248.352 190.941 250.031C192.172 251.709 192.787 253.779 192.787 256.241L192.787 300.383C192.787 303.404 191.864 305.837 190.018 307.684C188.172 309.53 185.738 310.453 182.717 310.453L138.575 310.453C135.554 310.453 133.121 309.53 131.274 307.684C129.428 305.837 128.505 303.404 128.505 300.383L128.505 268.493L158.716 268.493L158.716 285.109C158.716 286.34 159.387 286.955 160.73 286.955C161.961 286.955 162.576 286.34 162.576 285.109L162.576 268.157C162.576 265.808 161.401 264.633 159.052 264.633L140.925 264.633L140.925 238.282L159.052 238.282Z" fill="#ffffff" fill-rule="nonzero" opacity="1" stroke="none"/>
<path d="M261.434 310.453L231.223 310.453L231.223 286.284L207.222 286.284C204.201 286.284 201.767 285.361 199.921 283.515C198.074 281.669 197.151 279.235 197.151 276.214L197.151 192.965L227.362 192.965L227.362 259.933C227.362 261.836 228.313 262.787 230.216 262.787L231.223 262.787L231.223 192.965L261.434 192.965L261.434 310.453Z" fill="#ffffff" fill-rule="nonzero" opacity="0" stroke="none"/>
<path d="M296.344 238.282C298.694 238.282 299.869 237.107 299.869 234.757L299.869 218.309C299.869 217.078 299.254 216.463 298.023 216.463C296.68 216.463 296.009 217.078 296.009 218.309L296.009 234.422L265.798 234.422L265.798 203.036C265.798 200.015 266.721 197.581 268.567 195.735C270.413 193.889 272.847 192.965 275.868 192.965L320.01 192.965C323.031 192.965 325.464 193.889 327.311 195.735C329.157 197.581 330.08 200.015 330.08 203.036L330.08 236.939C330.08 239.401 329.465 241.499 328.234 243.233C327.003 244.968 325.325 246.115 323.199 246.674C325.325 247.234 327.003 248.352 328.234 250.031C329.465 251.709 330.08 253.779 330.08 256.241L330.08 300.383C330.08 303.404 329.157 305.837 327.311 307.684C325.464 309.53 323.031 310.453 320.01 310.453L275.868 310.453C272.847 310.453 270.413 309.53 268.567 307.684C266.721 305.837 265.798 303.404 265.798 300.383L265.798 268.493L296.009 268.493L296.009 285.109C296.009 286.34 296.68 286.955 298.023 286.955C299.254 286.955 299.869 286.34 299.869 285.109L299.869 268.157C299.869 265.808 298.694 264.633 296.344 264.633L278.218 264.633L278.218 238.282L296.344 238.282Z" fill="#ffffff" fill-rule="nonzero" opacity="1" stroke="none"/>
<path d="M219.656 192.962C218.444 193.105 217.591 193.946 217.25 195.087L216.969 195.931L196.125 257.993L196.125 286.4L196.125 286.993C196.291 288.413 197.382 289.498 198.812 289.618L199.25 289.618L234.562 289.618L234.562 310.462L261.969 310.462L261.969 195.962C261.969 195.937 262 195.925 262 195.9C262 194.27 260.689 192.962 259.062 192.962L220.281 192.962L219.656 192.962ZM234.562 226.243L234.562 257.993L225.562 257.993L234.562 226.243Z" fill="#ffffff" fill-rule="nonzero" opacity="1" stroke="none" vectornator:layerName="Curva 1"/>
</g>
</g>
</svg>
