<?xml version="1.0" encoding="UTF-8" standalone="no"?>
<!DOCTYPE svg PUBLIC "-//W3C//DTD SVG 1.1//EN" "http://www.w3.org/Graphics/SVG/1.1/DTD/svg11.dtd">
<!-- Created with Vectornator (http://vectornator.io/) -->
<svg height="100%" stroke-miterlimit="10" style="fill-rule:nonzero;clip-rule:evenodd;stroke-linecap:round;stroke-linejoin:round;" version="1.1" viewBox="77.3289 123.36 115.597 55.3917" width="100%" xml:space="preserve" xmlns="http://www.w3.org/2000/svg" xmlns:vectornator="http://vectornator.io" xmlns:xlink="http://www.w3.org/1999/xlink">
<defs/>
<clipPath id="ArtboardFrame">
<rect height="55.3917" width="115.597" x="77.3289" y="123.36"/>
</clipPath>
<g clip-path="url(#ArtboardFrame)" id="Layer" vectornator:layerName="Layer">
<g opacity="1" vectornator:layerName="Agrupar 1">
<path d="M95.9975 123.482L88.7046 134.287C88.6399 134.383 88.5319 134.44 88.4163 134.44L77.3289 134.442L77.3289 123.485L95.9975 123.482Z" fill="#43bf0f" fill-rule="nonzero" opacity="1" stroke="none" vectornator:layerName="path"/>
<path d="M115.305 123.482L103.28 141.279C103.279 141.28 103.277 141.283 103.276 141.286C103.253 141.329 103.268 141.382 103.31 141.404C103.313 141.406 103.316 141.407 103.319 141.408C111.705 144.868 116.471 153.41 115.149 162.352C115.138 162.426 115.133 162.484 115.134 162.527L114.998 163.155L115.011 163.161C113.391 170.912 107.503 176.827 99.7481 178.387C98.6207 178.614 96.9483 178.731 94.7302 178.738C88.9296 178.754 83.1294 178.756 77.3289 178.746L77.3289 167.612C83.4755 167.608 89.6221 167.612 95.7691 167.622C97.3378 167.624 98.7341 167.277 99.9584 166.581C106.374 162.932 105.298 153.646 98.3299 151.444C97.4988 151.181 96.1543 151.056 94.2965 151.07C90.3226 151.103 86.6571 151.104 83.2997 151.072C83.2995 151.072 83.2989 151.072 83.2986 151.072C83.2714 151.072 83.2493 151.051 83.2493 151.023C83.2493 151.013 83.2524 151.003 83.2584 150.995L101.74 123.563L115.305 123.482Z" fill="#ffffff" fill-rule="nonzero" opacity="1" stroke="none" vectornator:layerName="path"/>
<path d="M138.843 167.635L149.787 167.635C149.839 167.635 149.881 167.677 149.881 167.728L149.881 178.658C149.881 178.709 149.839 178.751 149.787 178.751L138.843 178.751C138.791 178.751 138.749 178.709 138.749 178.658L138.749 167.728C138.749 167.677 138.791 167.635 138.843 167.635" fill="#43bf0f" fill-rule="nonzero" opacity="1" stroke="none" vectornator:layerName="path"/>
<path d="M150 162.96L150 151.68L131.04 151.68C132.474 146.308 148.541 128.593 149.76 123.36C144.442 123.36 141.265 123.36 136.32 123.36L111.552 160.272C111.056 161.017 110.139 162.14 109.92 162.96L150 162.96Z" fill="#ffffff" fill-rule="evenodd" opacity="1" stroke="none" vectornator:layerName="path"/>
<path d="M95.9975 123.482L88.7046 134.287C88.6399 134.383 88.5319 134.44 88.4163 134.44L77.3289 134.442L77.3289 123.485L95.9975 123.482Z" fill="#43bf0f" fill-rule="nonzero" opacity="1" stroke="none" vectornator:layerName="path"/>
<path d="M115.305 123.482L103.28 141.279C103.279 141.28 103.277 141.283 103.276 141.286C103.253 141.329 103.268 141.382 103.31 141.404C103.313 141.406 103.316 141.407 103.319 141.408C111.705 144.868 116.471 153.41 115.149 162.352C115.138 162.426 115.133 162.484 115.134 162.527L114.998 163.155L115.011 163.161C113.391 170.912 107.503 176.827 99.7481 178.387C98.6207 178.614 96.9483 178.731 94.7302 178.738C88.9296 178.754 83.1294 178.756 77.3289 178.746L77.3289 167.612C83.4755 167.608 89.6221 167.612 95.7691 167.622C97.3378 167.624 98.7341 167.277 99.9584 166.581C106.374 162.932 105.298 153.646 98.3299 151.444C97.4988 151.181 96.1543 151.056 94.2965 151.07C90.3226 151.103 86.6571 151.104 83.2997 151.072C83.2995 151.072 83.2989 151.072 83.2986 151.072C83.2714 151.072 83.2493 151.051 83.2493 151.023C83.2493 151.013 83.2524 151.003 83.2584 150.995L101.74 123.563L115.305 123.482Z" fill="#ffffff" fill-rule="nonzero" opacity="1" stroke="none" vectornator:layerName="path"/>
<path d="M173.555 123.482L166.262 134.287C166.198 134.383 166.09 134.44 165.974 134.44L154.887 134.442L154.887 123.485L173.555 123.482Z" fill="#43bf0f" fill-rule="nonzero" opacity="1" stroke="none" vectornator:layerName="path"/>
<path d="M192.863 123.482L180.838 141.279C180.837 141.28 180.835 141.283 180.833 141.286C180.81 141.329 180.826 141.382 180.868 141.404C180.871 141.406 180.873 141.407 180.876 141.408C189.263 144.868 194.029 153.41 192.707 162.352C192.696 162.426 192.691 162.484 192.692 162.527L192.556 163.155L192.569 163.161C190.949 170.912 185.06 176.827 177.306 178.387C176.178 178.614 174.506 178.731 172.288 178.738C166.487 178.754 160.687 178.756 154.887 178.746L154.887 167.612C161.033 167.608 167.18 167.612 173.327 167.622C174.895 167.624 176.292 167.277 177.516 166.581C183.931 162.932 182.856 153.646 175.888 151.444C175.056 151.181 173.712 151.056 171.854 151.07C167.88 151.103 164.215 151.104 160.857 151.072C160.857 151.072 160.857 151.072 160.856 151.072C160.829 151.072 160.807 151.051 160.807 151.023C160.807 151.013 160.81 151.003 160.816 150.995L179.298 123.563L192.863 123.482Z" fill="#ffffff" fill-rule="nonzero" opacity="1" stroke="none" vectornator:layerName="path"/>
</g>
</g>
</svg>
