<?xml version="1.0" encoding="UTF-8" standalone="no"?>
<!DOCTYPE svg PUBLIC "-//W3C//DTD SVG 1.1//EN" "http://www.w3.org/Graphics/SVG/1.1/DTD/svg11.dtd">
<!-- Created with Vectornator (http://vectornator.io/) -->
<svg height="100%" stroke-miterlimit="10" style="fill-rule:nonzero;clip-rule:evenodd;stroke-linecap:round;stroke-linejoin:round;" version="1.1" viewBox="77.3289 67.3581 129.17 151.284" width="100%" xml:space="preserve" xmlns="http://www.w3.org/2000/svg" xmlns:vectornator="http://vectornator.io" xmlns:xlink="http://www.w3.org/1999/xlink">
<defs/>
<clipPath id="ArtboardFrame">
<rect height="151.284" width="129.17" x="77.3289" y="67.3581"/>
</clipPath>
<g clip-path="url(#ArtboardFrame)" id="Layer" vectornator:layerName="Layer">
<g opacity="1" vectornator:layerName="Agrupar 2">
<path d="M87.5154 106.394C87.5154 108.003 86.9253 109.268 85.7449 110.188C84.6564 111.046 83.2768 111.476 81.6058 111.476C81.2072 111.476 80.7398 111.437 80.2032 111.36L80.2032 117.546L77.3289 117.546L77.3289 102.002C78.6013 101.711 80.0422 101.565 81.652 101.565C83.3227 101.565 84.6797 101.94 85.722 102.692C86.9176 103.565 87.5154 104.799 87.5154 106.394ZM84.5263 106.302C84.5263 104.784 83.5529 104.025 81.6058 104.025C81.1307 104.025 80.663 104.071 80.2032 104.163L80.2032 108.946C80.617 109.007 81.0615 109.038 81.5369 109.038C82.4261 109.038 83.1464 108.8 83.6983 108.325C84.2502 107.85 84.5263 107.175 84.5263 106.302ZM99.6823 111.798C99.6823 113.545 99.1536 114.982 98.0957 116.109C97.0379 117.236 95.6429 117.799 93.9107 117.799C92.1784 117.799 90.7756 117.224 89.7026 116.074C88.6601 114.971 88.1391 113.545 88.1391 111.798C88.1391 110.05 88.6677 108.613 89.7256 107.486C90.7835 106.359 92.1784 105.796 93.9107 105.796C95.6429 105.796 97.0379 106.359 98.0957 107.486C99.1536 108.613 99.6823 110.05 99.6823 111.798ZM96.624 111.821C96.624 110.824 96.4247 110.004 96.0262 109.36C95.5511 108.578 94.8458 108.187 93.9107 108.187C92.9755 108.187 92.2703 108.571 91.7952 109.337C91.3966 109.981 91.1974 110.809 91.1974 111.821C91.1974 112.832 91.3966 113.653 91.7952 114.281C92.2703 115.047 92.9755 115.431 93.9107 115.431C94.8458 115.431 95.5511 115.047 96.0262 114.281C96.4247 113.653 96.624 112.832 96.624 111.821ZM108.975 106.049L108.147 108.417C107.656 108.264 107.15 108.187 106.629 108.187C105.894 108.187 105.204 108.287 104.56 108.486C104.575 108.594 104.583 108.67 104.583 108.716L104.583 117.546L101.823 117.546L101.823 108.785C101.823 108.433 101.754 107.858 101.616 107.061C103.64 106.217 105.388 105.796 106.859 105.796C107.626 105.796 108.331 105.88 108.975 106.049ZM117.163 117.316C115.906 117.745 114.879 117.96 114.082 117.96C111.721 117.96 110.541 116.895 110.541 114.764L110.541 108.417L109.23 108.348L109.23 106.164L110.541 106.095L110.541 102.898L113.3 102.898L113.3 106.049L116.519 106.049L116.519 108.44L113.3 108.44L113.3 114.557C113.3 115.216 113.653 115.545 114.358 115.545C114.833 115.545 115.516 115.393 116.405 115.086L117.163 117.316ZM128.066 116.903C126.103 117.5 124.471 117.799 123.168 117.799C121.819 117.799 120.684 117.554 119.764 117.063C118.599 116.435 118.017 115.515 118.017 114.304C118.017 112.97 118.63 111.997 119.856 111.384C120.347 111.138 121.497 110.817 123.306 110.418C124.532 110.142 125.145 109.751 125.145 109.245C125.145 108.54 124.501 108.187 123.214 108.187C122.156 108.187 121.09 108.417 120.017 108.877L119.074 106.785C120.516 106.125 122.025 105.796 123.604 105.796C124.907 105.796 125.935 106.087 126.686 106.67C127.498 107.313 127.905 108.272 127.905 109.544L127.905 115.454C127.905 115.745 127.958 116.228 128.066 116.903ZM125.191 115.178C125.16 114.978 125.145 114.833 125.145 114.741L125.145 111.912C124.915 112.143 124.425 112.342 123.674 112.511C122.738 112.725 122.148 112.886 121.903 112.993C121.336 113.254 121.052 113.622 121.052 114.097C121.052 115.032 121.765 115.5 123.191 115.5C123.85 115.5 124.517 115.393 125.191 115.178ZM135.334 117.385C134.537 117.661 133.771 117.799 133.035 117.799C131.349 117.799 130.505 117.002 130.505 115.408L130.505 100.668L133.265 100.668L133.265 114.764C133.265 115.239 133.449 115.477 133.817 115.477C134.001 115.477 134.292 115.393 134.69 115.224L135.334 117.385Z" fill="#ffffff" fill-rule="nonzero" opacity="1" stroke="none" vectornator:layerName="path"/>
<path d="M107.135 210.148L107.02 209.482C106.841 208.455 106.455 207.216 105.725 206.398C105.508 206.156 105.275 205.937 105.004 205.746L104.767 205.58L104.715 205.312C104.522 204.326 103.985 203.451 103.1 202.843C101.989 202.079 100.604 201.908 99.2607 202.141L98.2556 202.316L98.3565 201.241C98.4054 200.722 98.3787 200.214 98.304 199.698C98.2699 199.459 98.2362 199.226 98.2427 198.984C98.2589 198.338 98.6951 197.699 98.7453 197.073C98.8331 195.971 98.3994 194.197 98.7198 193.214L98.7288 193.186L98.7401 193.16C98.8559 192.887 99.046 192.674 99.1815 192.419C99.3639 192.077 99.5052 191.718 99.575 191.342C99.8524 189.849 98.9773 188.664 97.6665 187.847L97.3116 187.625L97.3301 187.234C97.332 187.193 97.3343 187.151 97.3346 187.109C97.3398 186.406 97.2467 185.74 96.9964 185.072C96.7773 184.487 96.8756 183.908 96.7845 183.321C96.6834 182.671 96.4534 182.122 96.115 181.546C96.1085 181.535 96.102 181.524 96.0955 181.514L95.9315 181.248L96.0316 180.957C96.138 180.648 96.3389 180.213 96.5395 179.947L96.6001 179.867L96.6819 179.804C98.034 178.777 99.0031 177.803 99.7086 176.315L100.042 175.613L99.2599 175.893C98.4558 176.181 97.6333 176.426 96.7982 176.628L96.6847 176.656L96.6126 176.74C96.1506 177.276 95.5897 177.729 95.015 178.162C94.1539 178.81 93.2079 180.892 93.5875 181.887C93.823 182.506 94.2448 182.927 94.3543 183.634C94.4794 184.441 94.3736 184.989 94.6735 185.792C95.0142 186.703 94.7454 187.373 94.9278 188.191C95.0748 188.847 95.5632 189.271 96.1634 189.619C96.6565 189.905 97.1501 190.278 97.1594 190.859C97.1684 191.424 96.6592 191.859 96.4427 192.375C95.8916 193.687 96.4099 195.499 96.2974 196.911C96.2755 197.182 96.1432 197.464 96.0519 197.724C95.9131 198.117 95.7988 198.517 95.7888 198.933C95.7759 199.441 95.8944 199.96 95.9209 200.471L95.9425 200.894L95.5425 201.11C95.447 201.162 95.3508 201.213 95.2553 201.266L95.1077 201.345L95.088 201.501C95.0377 201.892 95.0509 202.293 94.9593 202.681L94.9408 202.76L94.9029 202.834L98.8563 204.553L99.2973 204.429C100.667 204.045 102.13 204.351 102.321 205.847C102.379 206.295 102.453 206.89 102.889 207.173C103.273 207.423 103.461 207.404 103.821 207.808C104.174 208.204 104.383 208.895 104.504 209.396L104.586 209.738L104.338 210.004C104.21 210.141 104.032 210.295 103.934 210.449C103.656 210.886 103.873 211.526 104.017 211.977C104.334 212.969 104.688 213.043 105.373 213.804C105.863 214.348 106.121 215.128 106.623 215.589L106.663 215.626L110.972 217.591C111.99 218.014 114.063 218.986 115.174 218.517C115.772 218.265 116.059 217.974 116.771 217.795C117.442 217.627 117.615 217.773 118.116 217.315C118.709 216.772 118.432 215.969 119.403 215.56C120.842 214.952 120.365 215.505 121.448 214.346C122.386 213.342 123.044 213.271 124.325 212.892C124.715 212.777 125.078 212.572 125.468 212.44C127.481 211.76 127.971 213.677 130.354 212.922C131.96 212.413 132.317 211.492 132.88 210.152L133.11 209.604L133.744 209.709C134.465 209.829 135.245 210.029 135.674 209.312L136.544 207.95L136.555 207.934C137.217 207.014 137.499 205.773 138.331 204.948C139.117 204.169 138.896 204.403 138.933 203.493L138.948 203.133L139.278 202.932C140.32 202.299 140.247 201.667 140.08 200.595C140.012 200.154 140.01 199.903 140.247 199.495C140.541 198.988 140.572 198.622 140.488 198.059L140.467 197.916L140.334 197.836C139.622 197.406 138.492 197.389 138.03 196.561C137.463 195.545 136.061 192.97 137.253 192.053C137.555 191.821 137.965 191.696 138.341 191.599C138.918 191.45 139.682 191.33 140.162 190.981C140.726 190.571 140.626 190.408 140.832 189.8L140.914 189.56L141.144 189.421C141.325 189.311 141.572 189.226 141.781 189.163C142.588 188.921 143.015 188.753 143.614 188.211L144.15 187.727L144.696 188.202C145.082 188.537 145.256 188.949 145.471 189.378C145.703 189.839 145.948 190.323 146.341 190.691L146.431 190.776L146.559 190.787C147.319 190.852 147.848 190.561 148.599 190.501C149.448 190.431 150.293 190.376 151.14 190.504C151.864 190.613 152.584 190.731 153.316 190.793L153.92 190.845L154.011 191.391C154.037 191.549 154.092 191.696 154.161 191.844C154.732 193.068 155.044 192.942 156.247 193.544L156.449 193.645L156.557 193.83C156.646 193.981 156.729 194.115 156.844 194.251L156.993 194.425L157.225 194.358C157.817 194.188 158.429 194.091 159.038 193.984L159.246 193.947L159.543 193.034L160.29 193.24C160.506 193.3 160.716 193.309 160.94 193.316L161.131 193.322L161.239 193.178C161.489 192.849 161.889 192.379 162.327 192.288L162.376 192.28C162.674 192.236 163.084 192.367 163.377 192.401C164.162 192.46 164.653 191.942 165.035 191.385C165.509 190.693 165.426 190.518 166.343 190.12C167.364 189.676 166.991 189.671 167.56 189.003L167.771 188.754L168.115 188.731C169.281 188.652 171.774 188.597 172.77 188.166C172.95 188.088 173.125 188.004 173.293 187.906L173.503 187.784L173.753 187.796C174.028 187.81 174.304 187.835 174.58 187.844C175.393 187.874 176.208 187.802 176.993 187.599L177.206 187.544L177.242 187.344C177.361 186.677 177.444 186.188 178.142 185.796C178.832 185.409 179.039 184.944 179.193 184.24C179.219 184.125 179.244 184.009 179.276 183.895L179.409 183.419L179.946 183.367C180.254 183.337 180.484 183.321 180.784 183.225C181.231 183.083 181.309 183.012 181.545 182.64L181.604 182.547L181.691 182.474C181.811 182.373 181.925 182.316 182.074 182.261C182.807 181.987 183.217 181.99 183.807 181.466C184.324 181.007 184.182 180.89 184.499 180.321C184.693 179.973 184.898 179.852 185.16 179.581C185.647 179.079 185.874 178.404 186.317 177.856L186.391 177.765L186.491 177.701C186.903 177.433 188.006 177.166 188.533 176.984C189.27 176.729 190.275 176.347 190.723 175.726C190.945 175.417 190.995 174.931 191.261 174.636C191.273 174.622 191.286 174.608 191.299 174.594L191.438 174.446L191.642 174.384C191.863 174.317 191.99 174.256 192.175 174.124C192.552 173.852 192.917 173.233 193.176 172.859L193.432 172.489L195.762 172.7L196.145 171.289L196.845 171.386C196.906 171.394 196.968 171.4 197.03 171.399C197.509 171.396 197.863 171.126 198.168 170.815C198.613 170.362 198.647 169.73 199.196 169.288L199.216 169.271L200.516 167.869C201.019 167.327 201.634 166.91 202.146 166.388C203.184 165.332 203.258 163.92 203.232 162.573C203.201 160.96 202.88 160.625 201.356 159.984L200.674 159.697L200.967 159.068C201.1 158.783 201.306 158.483 201.399 158.191C201.555 157.698 201.421 157.252 201.153 156.815C200.692 156.06 199.782 156.013 200.318 154.76L200.374 154.63L200.479 154.529C200.728 154.291 201.357 154.128 201.706 154.005C202.468 153.737 203.001 153.628 203.317 152.891C203.392 152.716 203.442 152.569 203.467 152.383L203.48 152.29L203.52 152.203C203.53 152.182 203.539 152.161 203.549 152.14L203.645 151.95L203.839 151.838C203.988 151.751 203.989 151.197 204 151.04C204.057 150.239 203.75 150.095 204.164 149.183C204.457 148.538 204.758 147.894 205.104 147.27C205.226 147.048 205.379 146.824 205.479 146.595C205.758 145.962 205.853 144.727 205.98 144.02C205.998 143.922 206.017 143.825 206.048 143.729L206.097 143.576L206.214 143.458C206.542 143.125 206.505 142.747 206.489 142.324L206.484 142.188L206.372 142.097C206.15 141.918 205.863 141.785 205.598 141.586C205.276 141.322 205.072 140.993 204.779 140.748C204.402 140.433 203.43 140.37 202.94 140.311C201.654 140.155 200.039 139.902 199.65 138.558C199.524 138.12 199.48 137.648 199.321 137.223C199.114 136.671 198.634 136.375 198.486 135.69C198.291 134.788 198.68 133.875 198.134 133.084L198.083 133.014L197.728 132.149L197.72 132.125C197.298 130.829 197.496 129.455 196.732 128.268C196.647 128.137 196.561 128.003 196.497 127.863L196.402 127.656L196.456 127.437C196.531 127.136 196.602 126.915 196.607 126.602C196.617 126.075 196.436 125.415 196.325 124.895C196.152 124.084 195.981 123.274 195.874 122.454C195.797 121.855 195.749 121.248 195.782 120.646C195.808 120.179 195.814 119.737 195.645 119.289C195.55 119.036 195.472 118.817 195.427 118.55C195.41 118.449 195.394 118.349 195.39 118.246L195.379 118.01L195.528 117.815C195.729 117.553 195.837 117.425 195.941 117.113L195.979 117.003L195.93 116.897C195.631 116.245 195.355 116.246 195.507 115.377C195.646 114.584 195.872 113.769 195.635 112.972C195.276 111.765 194.032 111.192 192.909 110.652L192.728 110.565L192.618 110.407C192.514 110.259 192.468 110.124 192.417 109.956C192.291 109.547 192.054 109.298 191.714 109.016C190.242 107.796 189.455 106.753 189.3 104.912L189.266 104.503L190.099 103.991L190.102 103.825C190.12 102.902 189.725 101.839 189.938 100.928L189.949 100.876L189.97 100.827C190.535 99.4503 191.639 97.5085 191.674 96.0474C191.683 95.695 191.67 95.3684 191.617 95.0195L191.599 94.9005L191.625 94.7824C191.701 94.4422 191.837 94.1171 191.946 93.7854L191.993 93.6434L191.905 93.5196C191.805 93.3809 191.669 93.2651 191.537 93.1526L191.081 92.7657L191.398 92.2776C191.634 91.9145 191.649 91.777 191.657 91.3342L191.662 91.086L191.399 91.0214C190.879 90.8935 190.091 90.6829 189.861 90.2038C189.733 89.937 189.719 89.6266 189.672 89.3416C189.59 88.851 189.453 88.4033 189.214 87.9561C189.12 87.7816 189.044 87.6541 188.896 87.5166L188.519 87.1665L188.748 86.7227C189.01 86.2134 189.075 85.9119 188.997 85.3369L188.976 85.1778L188.823 85.0986C188.302 84.8309 187.567 84.763 187.198 84.3455C186.74 83.8264 186.983 83.1151 187.19 82.5514C187.454 81.8332 187.763 80.869 187.249 80.1844C187 79.8537 186.554 79.5884 186.213 79.3404L185.886 79.1035L185.924 78.7247C186.096 77.0015 186.926 77.1612 187.49 75.7715C187.766 75.09 187.848 74.9907 188.419 74.5095C189.027 73.9977 189.001 72.701 189.023 72.0044L189.028 71.8351L188.877 71.7362C188.742 71.6483 188.625 71.5875 188.47 71.5349L188.331 71.4881L188.221 71.3978C188.181 71.3651 188.144 71.3299 188.112 71.291L188.091 71.2676L187.901 70.9823L187.89 70.9696L187.871 70.9426C187.848 70.91 187.824 70.8762 187.796 70.847C187.154 70.1957 186.379 70.4694 185.493 70.307C184.213 70.0726 182.155 70.7223 181.195 69.5002L181.173 69.472L181.154 69.4418C181.142 69.4228 181.128 69.4028 181.114 69.3852C180.591 68.7486 179.874 68.6871 179.163 68.2786C178.616 67.9641 178.242 67.3685 177.585 67.3583C177.077 67.3503 176.745 67.7348 176.529 68.109C175.988 69.0458 175.524 70.1398 176.679 70.8346L177.193 71.1435L176.979 71.6686C176.713 72.3219 176.395 72.9752 175.827 73.4601C175.499 73.7401 175.197 73.8397 174.921 74.1729C173.735 75.5998 174.023 76.5506 171.518 76.5506L171.084 76.5506L171.176 76.9364C171.219 77.1151 171.267 77.3046 171.275 77.4872L171.288 77.741L171.12 77.9436C170.931 78.1712 170.689 78.3572 170.48 78.5605C170.102 78.9524 169.739 79.6244 169.311 79.9478L169.147 80.0716L166.144 80.5043L166.13 80.5073C165.829 80.5694 165.527 80.6414 165.221 80.6747L164.897 80.7105L164.644 80.5253C164.356 80.3155 164.089 80.2545 163.73 80.2026L163.522 80.1729L163.396 80.3259C162.94 80.8762 162.658 81.5295 162.182 82.0838C161.689 82.6573 161.027 82.9999 160.55 83.5259C159.993 84.1401 159.952 84.883 160.035 85.6445C160.047 85.7572 160.058 85.8703 160.059 85.9836L160.064 86.3666L159.714 86.579C159.518 86.698 159.3 86.8023 159.118 86.9391L158.955 87.0627L159 87.2526C159.231 88.2103 159.231 88.4928 158.31 89.1037C156.788 90.114 156.755 90.6797 156.013 92.1626C155.874 92.442 155.706 92.6841 155.463 92.9005C155.135 93.1942 154.77 93.303 154.411 93.5249C153.991 93.7839 153.752 94.1071 153.612 94.549C153.338 95.4172 153.671 96.7863 154.276 97.4961C154.424 97.6685 154.785 98.1112 155.072 98.0696L155.461 98.0131L155.741 98.2661C156.14 98.6278 156.296 99.375 156.267 99.8776C156.203 100.977 150.314 105.551 149.37 106.175L149.221 106.274L149.226 106.441C149.239 106.851 149.451 107.229 149.423 107.594C149.427 107.661 149.424 107.727 149.41 107.793L149.394 107.865L149.364 107.932C149.22 108.248 149.165 108.383 149.139 108.726L149.129 108.861L149.228 108.962C149.45 109.187 149.754 109.356 149.981 109.603L150.049 109.676L151.03 111.643L151.047 111.7C151.386 112.854 151.581 114.114 152.156 115.196C152.236 115.346 152.317 115.501 152.376 115.66L152.491 115.968L152.309 116.248C152.094 116.576 152.005 116.703 151.941 117.09C151.876 117.487 151.838 117.887 151.768 118.284L151.701 118.656L148.677 123.259L149.916 123.345L154.34 117.595L154.364 117.446L154.451 117.319C154.515 117.228 154.581 117.137 154.632 117.039C155.137 116.079 154.85 115.136 154.366 114.224C153.841 113.234 153.711 112.08 153.392 111.03L153.347 110.881L152.209 108.604L152.116 108.475C152.084 108.431 152.051 108.389 152.017 108.346L151.846 108.136L151.867 107.875C151.87 107.849 151.871 107.823 151.873 107.797C151.881 107.678 151.883 107.558 151.879 107.438L151.868 107.158L152.073 106.947C153.025 105.967 158.716 101.082 158.725 99.7638C158.734 98.4389 158.106 96.8976 156.793 96.2054C156.75 96.1826 156.706 96.1607 156.662 96.1392L155.547 95.5912L156.59 94.9368C156.801 94.8049 157 94.6584 157.183 94.4951C157.64 94.0869 157.983 93.6167 158.247 93.0872C158.73 92.1217 158.701 91.6088 159.755 90.9101C160.747 90.2524 161.468 89.5003 161.564 88.3441L161.585 88.0978L161.777 87.9086C162.482 87.1989 162.576 86.3424 162.477 85.4245C162.473 85.3814 162.467 85.338 162.464 85.2943L162.431 84.9232L162.75 84.6892C162.807 84.6472 162.867 84.6061 162.923 84.5626C163.358 84.2277 163.764 83.8683 164.116 83.4593C164.179 83.3852 164.24 83.3096 164.299 83.232L164.533 82.9208L164.947 82.9248C165.497 82.9303 166.057 82.8164 166.589 82.7039L166.616 82.6982L169.615 82.2662L169.764 82.2238C170.748 81.9435 171.364 81.3196 171.917 80.5577C172.029 80.403 172.116 80.25 172.272 80.0881C172.683 79.688 173.138 79.3085 173.411 78.8113L173.548 78.5625L173.834 78.4657C174.408 78.2716 174.912 77.9806 175.34 77.581C175.935 77.0266 176.275 76.2874 176.768 75.658L176.85 75.5529L176.967 75.4808C177.159 75.364 177.337 75.2332 177.505 75.0895C178.534 74.2115 178.856 73.3888 179.348 72.2331L179.68 71.4522L180.469 71.8824C181.382 72.3803 182.469 72.5148 183.516 72.5019C183.99 72.4961 184.546 72.4128 185.008 72.4976C185.131 72.5198 185.256 72.5368 185.381 72.549L186.722 72.6793L185.923 73.6688C185.594 74.0763 185.378 74.526 185.187 74.9982C185.022 75.4042 184.887 75.486 184.597 75.7825C183.646 76.7575 183.481 77.9057 183.436 79.1627L183.405 80.0062L184.068 80.5974C184.245 80.7554 184.433 80.9036 184.625 81.0463L185.035 81.3498L184.863 81.8422C184.312 83.3395 184.262 85.036 185.692 86.1355L186.148 86.4865L185.73 87.2875L186.306 88.1667C186.482 88.4345 186.674 88.6678 186.92 88.8851L187.045 88.9965L187.106 89.1462C187.361 89.7751 187.327 90.5033 187.611 91.0962C187.778 91.4436 188.007 91.7543 188.3 92.0233L188.656 92.3513L188.391 92.9601L188.921 93.7702C188.968 93.8423 189.017 93.9127 189.069 93.9818L189.241 94.2134L189.193 94.4899C189.157 94.696 189.139 94.9077 189.158 95.1165C189.185 95.414 189.228 95.6977 189.221 95.9985C189.21 96.4574 188.899 97.2019 188.725 97.6518C188.512 98.2015 188.275 98.743 188.031 99.2821C187.862 99.6555 187.628 100.07 187.537 100.465C187.376 101.157 187.432 101.727 187.524 102.415L187.581 102.843L186.8 103.324L186.817 104.36C186.861 107.059 187.802 108.766 189.962 110.584L190.102 110.703L190.166 110.867C190.349 111.337 190.55 111.658 190.902 112.045L190.968 112.116L191.041 112.182C191.497 112.594 192.471 112.853 193.016 113.279L193.299 113.501L193.285 113.84C193.269 114.242 193.153 114.632 193.084 115.027C192.984 115.6 192.968 116.168 193.146 116.73L193.219 116.958L193.126 117.178C192.894 117.731 192.904 118.311 193.001 118.889C193.066 119.276 193.184 119.643 193.324 120.013L193.444 120.334L193.334 120.492C193.333 120.506 193.332 120.521 193.331 120.534C193.291 121.261 193.343 121.992 193.437 122.714C193.548 123.574 193.724 124.426 193.905 125.276C193.996 125.7 194.147 126.149 194.153 126.582L194.154 126.632L194.147 126.682C194.12 126.869 194.033 127.038 194.003 127.214C193.865 128.022 194.173 128.711 194.615 129.397C194.723 129.566 194.787 129.75 194.835 129.94C194.93 130.318 194.965 130.7 195.016 131.084C195.094 131.666 195.198 132.246 195.384 132.808L195.403 132.866L195.868 134.002L196.005 134.212L195.982 134.44C195.977 134.483 195.972 134.527 195.97 134.57C195.941 135.092 195.967 135.607 196.078 136.12C196.224 136.796 196.484 137.3 196.926 137.857L197.007 137.958L197.044 138.078C197.151 138.425 197.177 138.781 197.275 139.122C197.955 141.479 200.192 142.231 202.616 142.526C202.725 142.539 202.833 142.549 202.942 142.561L203.781 142.651L203.61 143.405C203.591 143.489 203.574 143.574 203.559 143.659C203.457 144.224 203.36 144.79 203.265 145.356C203.246 145.465 203.236 145.573 203.213 145.682L203.193 145.78L203.145 145.869C203.057 146.029 202.957 146.182 202.87 146.341C202.514 146.991 202.2 147.659 201.895 148.33C201.597 148.988 201.407 149.606 201.495 150.324C201.504 150.395 201.519 150.467 201.53 150.538L201.564 150.763L201.446 150.968C201.348 151.148 201.253 151.336 201.181 151.526L201.064 151.835L200.73 151.953C199.514 152.385 198.587 152.744 198.056 153.892L198.031 153.95C197.531 155.073 197.548 156.231 198.349 157.233C198.406 157.306 198.478 157.374 198.546 157.438L198.906 157.777L198.701 158.209C198.448 158.743 198.307 159.291 198.288 159.874L198.247 161.131L199.499 161.665C199.758 161.775 200.037 161.861 200.301 161.961L200.778 162.142L200.778 162.612C200.828 165.267 200.221 164.72 198.639 166.429L197.447 167.715L197.417 167.741C197.115 168.004 196.866 168.293 196.668 168.628L196.44 169.015L194.254 168.943L193.89 170.286L192.336 170.146L191.622 170.98C191.373 171.272 191.158 171.59 190.942 171.902C190.885 171.983 190.832 172.067 190.776 172.149L190.654 172.325L190.447 172.414C190.001 172.604 189.678 172.871 189.366 173.216C189.091 173.52 188.892 173.85 188.755 174.224L188.65 174.513L188.348 174.641C188.124 174.737 187.891 174.816 187.66 174.896C186.691 175.232 185.504 175.516 184.718 176.153C184.041 176.701 183.919 177.485 183.321 178.104C182.91 178.528 182.595 178.798 182.309 179.312C182.25 179.418 182.197 179.525 182.149 179.635L182.015 179.938L181.674 180.041C181.504 180.093 181.305 180.132 181.141 180.193C180.745 180.341 180.381 180.542 180.062 180.804C179.998 180.856 179.936 180.911 179.877 180.968L179.682 181.154L179.4 181.182C179.064 181.216 178.777 181.275 178.469 181.407C177.429 181.852 177.043 182.711 176.814 183.681L176.753 183.944L176.515 184.102C176.05 184.413 175.681 184.782 175.406 185.244L175.168 185.643L174.67 185.611C173.967 185.586 173.237 185.461 172.566 185.711C172.301 185.809 172.043 186 171.777 186.121L171.724 186.146L171.667 186.162C171.154 186.313 170.428 186.332 169.881 186.375C169.069 186.439 168.255 186.47 167.445 186.541L166.738 186.603L166.218 187.043C165.898 187.312 165.636 187.584 165.411 187.924L165.294 188.098L165.094 188.189C164.122 188.63 163.853 188.894 163.29 189.71L163.047 190.061L162.592 190.039C162.363 190.028 162.144 190.047 161.917 190.085C161.358 190.178 160.859 190.398 160.412 190.714L160.178 190.88L159.881 190.86C159.652 190.845 159.422 190.847 159.193 190.854L156.504 190.938L156.391 190.329C156.357 190.143 156.277 189.975 156.182 189.808C155.674 188.909 154.761 188.658 153.715 188.583C152.983 188.53 152.264 188.409 151.541 188.3C150.488 188.141 149.439 188.189 148.381 188.275C148.321 188.28 148.262 188.285 148.202 188.291L147.665 188.348L147.421 187.909C147.163 187.445 146.873 187.025 146.471 186.651C145.914 186.135 145.228 185.793 144.45 185.641L144.094 185.572L143.732 185.615C143.36 185.66 143.005 185.776 142.689 185.961C142.353 186.156 142.153 186.437 141.861 186.681L141.827 186.71L141.788 186.735C141.582 186.87 141.256 186.969 141.011 187.043C139.922 187.37 138.978 187.915 138.564 188.93L138.42 189.285L138.015 189.372C137.9 189.397 137.784 189.421 137.67 189.45C136.939 189.639 136.254 189.895 135.668 190.347C133.225 192.227 134.649 195.438 135.842 197.573C136.175 198.169 136.641 198.654 137.265 199.01L137.687 199.251L137.622 199.7C137.572 200.044 137.582 200.39 137.625 200.734L137.684 201.203L136.721 201.688L136.564 202.618C136.529 202.828 136.503 203.038 136.489 203.25L136.475 203.477L136.318 203.654C135.832 204.201 135.484 204.84 135.166 205.477C134.958 205.895 134.783 206.329 134.491 206.725L134.461 206.764L133.983 207.515L133.438 207.415C133.308 207.391 133.178 207.371 133.046 207.362L131.523 207.254L130.94 208.541C130.668 209.14 130.438 210.027 130.022 210.531L129.913 210.665L129.748 210.74C129.688 210.767 129.626 210.786 129.563 210.807L129.236 210.912L128.932 210.76C128.851 210.72 128.773 210.675 128.692 210.635C127.311 209.959 126.091 209.846 124.613 210.346C124.255 210.467 123.94 210.657 123.567 210.768C121.766 211.302 120.847 211.54 119.578 212.898C119.535 212.944 119.493 212.99 119.451 213.036L119.315 213.187L119.111 213.253C118.859 213.335 118.613 213.431 118.37 213.534C117.486 213.907 116.835 214.447 116.462 215.274L116.321 215.584L115.968 215.681C115.499 215.81 115.051 215.984 114.628 216.211C114.615 216.218 114.602 216.225 114.589 216.232L114.279 216.411L113.931 216.306C113.286 216.112 112.642 215.83 111.998 215.561L108.253 213.852L108.136 213.653C108.05 213.505 107.97 213.352 107.878 213.207C107.698 212.92 107.5 212.643 107.271 212.388C107.093 212.191 106.889 212.011 106.698 211.824L106.28 211.418L106.617 210.953C106.669 210.881 106.719 210.807 106.767 210.732L107.135 210.148Z" fill="#ffffff" fill-rule="evenodd" opacity="1" stroke="none" vectornator:layerName="path"/>
<g opacity="1" vectornator:layerName="Agrupar 1">
<path d="M95.9975 123.482L88.7046 134.287C88.6399 134.383 88.5319 134.44 88.4163 134.44L77.3289 134.442L77.3289 123.485L95.9975 123.482Z" fill="#ffffff" fill-rule="nonzero" opacity="1" stroke="none" vectornator:layerName="path"/>
<path d="M115.305 123.482L103.28 141.279C103.279 141.28 103.277 141.283 103.276 141.286C103.253 141.329 103.268 141.382 103.31 141.404C103.313 141.406 103.316 141.407 103.319 141.408C111.705 144.868 116.471 153.41 115.149 162.352C115.138 162.426 115.133 162.484 115.134 162.527L114.998 163.155L115.011 163.161C113.391 170.912 107.503 176.827 99.7481 178.387C98.6207 178.614 96.9483 178.731 94.7302 178.738C88.9296 178.754 83.1294 178.756 77.3289 178.746L77.3289 167.612C83.4755 167.608 89.6221 167.612 95.7691 167.622C97.3378 167.624 98.7341 167.277 99.9584 166.581C106.374 162.932 105.298 153.646 98.3299 151.444C97.4988 151.181 96.1543 151.056 94.2965 151.07C90.3226 151.103 86.6571 151.104 83.2997 151.072C83.2995 151.072 83.2989 151.072 83.2986 151.072C83.2714 151.072 83.2493 151.051 83.2493 151.023C83.2493 151.013 83.2524 151.003 83.2584 150.995L101.74 123.563L115.305 123.482Z" fill="#ffffff" fill-rule="nonzero" opacity="1" stroke="none" vectornator:layerName="path"/>
<path d="M138.843 167.635L149.787 167.635C149.839 167.635 149.881 167.677 149.881 167.728L149.881 178.658C149.881 178.709 149.839 178.751 149.787 178.751L138.843 178.751C138.791 178.751 138.749 178.709 138.749 178.658L138.749 167.728C138.749 167.677 138.791 167.635 138.843 167.635" fill="#ffffff" fill-rule="nonzero" opacity="1" stroke="none" vectornator:layerName="path"/>
<path d="M150 162.96L150 151.68L131.04 151.68C132.474 146.308 148.541 128.593 149.76 123.36C144.442 123.36 141.265 123.36 136.32 123.36L111.552 160.272C111.056 161.017 110.139 162.14 109.92 162.96L150 162.96Z" fill="#ffffff" fill-rule="evenodd" opacity="1" stroke="none" vectornator:layerName="path"/>
<path d="M95.9975 123.482L88.7046 134.287C88.6399 134.383 88.5319 134.44 88.4163 134.44L77.3289 134.442L77.3289 123.485L95.9975 123.482Z" fill="#ffffff" fill-rule="nonzero" opacity="1" stroke="none" vectornator:layerName="path"/>
<path d="M115.305 123.482L103.28 141.279C103.279 141.28 103.277 141.283 103.276 141.286C103.253 141.329 103.268 141.382 103.31 141.404C103.313 141.406 103.316 141.407 103.319 141.408C111.705 144.868 116.471 153.41 115.149 162.352C115.138 162.426 115.133 162.484 115.134 162.527L114.998 163.155L115.011 163.161C113.391 170.912 107.503 176.827 99.7481 178.387C98.6207 178.614 96.9483 178.731 94.7302 178.738C88.9296 178.754 83.1294 178.756 77.3289 178.746L77.3289 167.612C83.4755 167.608 89.6221 167.612 95.7691 167.622C97.3378 167.624 98.7341 167.277 99.9584 166.581C106.374 162.932 105.298 153.646 98.3299 151.444C97.4988 151.181 96.1543 151.056 94.2965 151.07C90.3226 151.103 86.6571 151.104 83.2997 151.072C83.2995 151.072 83.2989 151.072 83.2986 151.072C83.2714 151.072 83.2493 151.051 83.2493 151.023C83.2493 151.013 83.2524 151.003 83.2584 150.995L101.74 123.563L115.305 123.482Z" fill="#ffffff" fill-rule="nonzero" opacity="1" stroke="none" vectornator:layerName="path"/>
<path d="M173.555 123.482L166.262 134.287C166.198 134.383 166.09 134.44 165.974 134.44L154.887 134.442L154.887 123.485L173.555 123.482Z" fill="#ffffff" fill-rule="nonzero" opacity="1" stroke="none" vectornator:layerName="path"/>
<path d="M192.863 123.482L180.838 141.279C180.837 141.28 180.835 141.283 180.833 141.286C180.81 141.329 180.826 141.382 180.868 141.404C180.871 141.406 180.873 141.407 180.876 141.408C189.263 144.868 194.029 153.41 192.707 162.352C192.696 162.426 192.691 162.484 192.692 162.527L192.556 163.155L192.569 163.161C190.949 170.912 185.06 176.827 177.306 178.387C176.178 178.614 174.506 178.731 172.288 178.738C166.487 178.754 160.687 178.756 154.887 178.746L154.887 167.612C161.033 167.608 167.18 167.612 173.327 167.622C174.895 167.624 176.292 167.277 177.516 166.581C183.931 162.932 182.856 153.646 175.888 151.444C175.056 151.181 173.712 151.056 171.854 151.07C167.88 151.103 164.215 151.104 160.857 151.072C160.857 151.072 160.857 151.072 160.856 151.072C160.829 151.072 160.807 151.051 160.807 151.023C160.807 151.013 160.81 151.003 160.816 150.995L179.298 123.563L192.863 123.482Z" fill="#ffffff" fill-rule="nonzero" opacity="1" stroke="none" vectornator:layerName="path"/>
</g>
</g>
</g>
</svg>
