<?xml version="1.0" encoding="UTF-8" standalone="no"?>
<!DOCTYPE svg PUBLIC "-//W3C//DTD SVG 1.1//EN" "http://www.w3.org/Graphics/SVG/1.1/DTD/svg11.dtd">
<!-- Created with Vectornator (http://vectornator.io/) -->
<svg height="100%" stroke-miterlimit="10" style="fill-rule:nonzero;clip-rule:evenodd;stroke-linecap:round;stroke-linejoin:round;" version="1.1" viewBox="622.573 32.5751 201.575 117.492" width="100%" xml:space="preserve" xmlns="http://www.w3.org/2000/svg" xmlns:vectornator="http://vectornator.io" xmlns:xlink="http://www.w3.org/1999/xlink">
<defs/>
<clipPath id="ArtboardFrame">
<rect height="117.492" width="201.575" x="622.573" y="32.5751"/>
</clipPath>
<g clip-path="url(#ArtboardFrame)" id="Layer" vectornator:layerName="Layer">
<g opacity="1" vectornator:layerName="Agrupar 12">
<path d="M653.119 77.8966C655.469 77.8966 656.644 76.7217 656.644 74.372L656.644 57.9237C656.644 56.6929 656.029 56.0775 654.798 56.0775C653.455 56.0775 652.784 56.6929 652.784 57.9237L652.784 74.0363L622.573 74.0363L622.573 42.6503C622.573 39.6292 623.496 37.1955 625.342 35.3493C627.188 33.5031 629.622 32.58 632.643 32.58L676.785 32.58C679.806 32.58 682.239 33.5031 684.086 35.3493C685.932 37.1955 686.855 39.6292 686.855 42.6503L686.855 76.5539C686.855 79.0155 686.24 81.1135 685.009 82.8479C683.778 84.5822 682.1 85.7291 679.974 86.2886C682.1 86.848 683.778 87.967 685.009 89.6453C686.24 91.3237 686.855 93.3938 686.855 95.8554L686.855 139.997C686.855 143.018 685.932 145.452 684.086 147.298C682.239 149.144 679.806 150.068 676.785 150.068L632.643 150.068C629.622 150.068 627.188 149.144 625.342 147.298C623.496 145.452 622.573 143.018 622.573 139.997L622.573 108.108L652.784 108.108L652.784 124.724C652.784 125.955 653.455 126.57 654.798 126.57C656.029 126.57 656.644 125.955 656.644 124.724L656.644 107.772C656.644 105.422 655.469 104.247 653.119 104.247L634.993 104.247L634.993 77.8966L653.119 77.8966Z" fill="#ffffff" fill-rule="nonzero" opacity="1" stroke="none"/>
<path d="M755.501 150.068L725.29 150.068L725.29 125.899L701.289 125.899C698.268 125.899 695.834 124.976 693.988 123.129C692.142 121.283 691.219 118.849 691.219 115.828L691.219 32.58L721.43 32.58L721.43 99.5479C721.43 101.45 722.381 102.401 724.283 102.401L725.29 102.401L725.29 32.58L755.501 32.58L755.501 150.068Z" fill="#ffffff" fill-rule="nonzero" opacity="1" stroke="none"/>
<path d="M790.412 77.8966C792.762 77.8966 793.937 76.7217 793.937 74.372L793.937 57.9237C793.937 56.6929 793.321 56.0775 792.09 56.0775C790.748 56.0775 790.076 56.6929 790.076 57.9237L790.076 74.0363L759.865 74.0363L759.865 42.6503C759.865 39.6292 760.788 37.1955 762.635 35.3493C764.481 33.5031 766.914 32.58 769.936 32.58L814.077 32.58C817.098 32.58 819.532 33.5031 821.378 35.3493C823.225 37.1955 824.148 39.6292 824.148 42.6503L824.148 76.5539C824.148 79.0155 823.532 81.1135 822.301 82.8479C821.071 84.5822 819.392 85.7291 817.266 86.2886C819.392 86.848 821.071 87.967 822.301 89.6453C823.532 91.3237 824.148 93.3938 824.148 95.8554L824.148 139.997C824.148 143.018 823.225 145.452 821.378 147.298C819.532 149.144 817.098 150.068 814.077 150.068L769.936 150.068C766.914 150.068 764.481 149.144 762.635 147.298C760.788 145.452 759.865 143.018 759.865 139.997L759.865 108.108L790.076 108.108L790.076 124.724C790.076 125.955 790.748 126.57 792.09 126.57C793.321 126.57 793.937 125.955 793.937 124.724L793.937 107.772C793.937 105.422 792.762 104.247 790.412 104.247L772.285 104.247L772.285 77.8966L790.412 77.8966Z" fill="#ffffff" fill-rule="nonzero" opacity="1" stroke="none"/>
<path d="M718.886 32.5751L690.189 97.6128L690.189 129.233L728.627 129.233L728.627 150.063L756.051 150.063L756.051 32.5751L718.886 32.5751ZM728.627 75.7338L728.627 97.6128L719.635 97.6128L728.627 75.7338Z" fill="#ffffff" fill-rule="nonzero" opacity="0" stroke="none" vectornator:layerName="Curva 1"/>
</g>
</g>
</svg>
