<?xml version="1.0" encoding="UTF-8" standalone="no"?>
<!DOCTYPE svg PUBLIC "-//W3C//DTD SVG 1.1//EN" "http://www.w3.org/Graphics/SVG/1.1/DTD/svg11.dtd">
<!-- Created with Vectornator (http://vectornator.io/) -->
<svg height="100%" stroke-miterlimit="10" style="fill-rule:nonzero;clip-rule:evenodd;stroke-linecap:round;stroke-linejoin:round;" version="1.1" viewBox="118.805 116.304 115.597 55.3917" width="100%" xml:space="preserve" xmlns="http://www.w3.org/2000/svg" xmlns:vectornator="http://vectornator.io" xmlns:xlink="http://www.w3.org/1999/xlink">
<defs/>
<clipPath id="ArtboardFrame">
<rect height="55.3917" width="115.597" x="118.805" y="116.304"/>
</clipPath>
<g clip-path="url(#ArtboardFrame)" id="Layer" vectornator:layerName="Layer">
<g opacity="1" vectornator:layerName="Agrupar 1">
<path d="M137.473 116.426L130.181 127.231C130.116 127.326 130.008 127.384 129.892 127.384L118.805 127.386L118.805 116.429L137.473 116.426Z" fill="#ffffff" fill-rule="nonzero" opacity="1" stroke="none" vectornator:layerName="path"/>
<path d="M156.781 116.426L144.756 134.222C144.755 134.224 144.753 134.227 144.752 134.23C144.729 134.273 144.744 134.326 144.786 134.348C144.789 134.349 144.792 134.351 144.795 134.352C153.181 137.811 157.947 146.354 156.625 155.296C156.614 155.37 156.609 155.428 156.61 155.47L156.474 156.099L156.487 156.105C154.867 163.856 148.979 169.771 141.224 171.331C140.097 171.558 138.424 171.675 136.206 171.682C130.406 171.697 124.605 171.7 118.805 171.69L118.805 160.555C124.951 160.552 131.098 160.555 137.245 160.566C138.814 160.567 140.21 160.22 141.434 159.524C147.849 155.875 146.774 146.59 139.806 144.388C138.975 144.124 137.63 144 135.772 144.014C131.799 144.047 128.133 144.047 124.776 144.016C124.775 144.016 124.775 144.016 124.775 144.016C124.747 144.016 124.725 143.994 124.725 143.967C124.725 143.957 124.728 143.947 124.734 143.939L143.216 116.507L156.781 116.426Z" fill="#ffffff" fill-rule="nonzero" opacity="1" stroke="none" vectornator:layerName="path"/>
<path d="M180.319 160.579L191.263 160.579C191.315 160.579 191.357 160.621 191.357 160.672L191.357 171.601C191.357 171.653 191.315 171.695 191.263 171.695L180.319 171.695C180.267 171.695 180.225 171.653 180.225 171.601L180.225 160.672C180.225 160.621 180.267 160.579 180.319 160.579" fill="#fec00e" fill-rule="nonzero" opacity="1" stroke="none" vectornator:layerName="path"/>
<path d="M191.476 155.904L191.476 144.624L172.516 144.624C173.95 139.252 190.016 121.537 191.236 116.304C185.918 116.304 182.741 116.304 177.796 116.304L153.028 153.216C152.532 153.961 151.615 155.084 151.396 155.904L191.476 155.904Z" fill="#ffffff" fill-rule="evenodd" opacity="1" stroke="none" vectornator:layerName="path"/>
<path d="M137.473 116.426L130.181 127.231C130.116 127.326 130.008 127.384 129.892 127.384L118.805 127.386L118.805 116.429L137.473 116.426Z" fill="#fec00e" fill-rule="nonzero" opacity="1" stroke="none" vectornator:layerName="path"/>
<path d="M156.781 116.426L144.756 134.222C144.755 134.224 144.753 134.227 144.752 134.23C144.729 134.273 144.744 134.326 144.786 134.348C144.789 134.349 144.792 134.351 144.795 134.352C153.181 137.811 157.947 146.354 156.625 155.296C156.614 155.37 156.609 155.428 156.61 155.47L156.474 156.099L156.487 156.105C154.867 163.856 148.979 169.771 141.224 171.331C140.097 171.558 138.424 171.675 136.206 171.682C130.406 171.697 124.605 171.7 118.805 171.69L118.805 160.555C124.951 160.552 131.098 160.555 137.245 160.566C138.814 160.567 140.21 160.22 141.434 159.524C147.849 155.875 146.774 146.59 139.806 144.388C138.975 144.124 137.63 144 135.772 144.014C131.799 144.047 128.133 144.047 124.776 144.016C124.775 144.016 124.775 144.016 124.775 144.016C124.747 144.016 124.725 143.994 124.725 143.967C124.725 143.957 124.728 143.947 124.734 143.939L143.216 116.507L156.781 116.426Z" fill="#ffffff" fill-rule="nonzero" opacity="1" stroke="none" vectornator:layerName="path"/>
<path d="M215.031 116.426L207.738 127.231C207.674 127.326 207.566 127.384 207.45 127.384L196.363 127.386L196.363 116.429L215.031 116.426Z" fill="#fec00e" fill-rule="nonzero" opacity="1" stroke="none" vectornator:layerName="path"/>
<path d="M234.339 116.426L222.314 134.222C222.313 134.224 222.311 134.227 222.309 134.23C222.286 134.273 222.302 134.326 222.344 134.348C222.347 134.349 222.349 134.351 222.352 134.352C230.739 137.811 235.505 146.354 234.183 155.296C234.172 155.37 234.167 155.428 234.168 155.47L234.032 156.099L234.045 156.105C232.425 163.856 226.536 169.771 218.782 171.331C217.654 171.558 215.982 171.675 213.764 171.682C207.963 171.697 202.163 171.7 196.363 171.69L196.363 160.555C202.509 160.552 208.656 160.555 214.803 160.566C216.371 160.567 217.768 160.22 218.992 159.524C225.407 155.875 224.332 146.59 217.364 144.388C216.532 144.124 215.188 144 213.33 144.014C209.356 144.047 205.691 144.047 202.333 144.016C202.333 144.016 202.333 144.016 202.332 144.016C202.305 144.016 202.283 143.994 202.283 143.967C202.283 143.957 202.286 143.947 202.292 143.939L220.774 116.507L234.339 116.426Z" fill="#ffffff" fill-rule="nonzero" opacity="1" stroke="none" vectornator:layerName="path"/>
</g>
</g>
</svg>
