<?xml version="1.0" encoding="UTF-8" standalone="no"?>
<!DOCTYPE svg PUBLIC "-//W3C//DTD SVG 1.1//EN" "http://www.w3.org/Graphics/SVG/1.1/DTD/svg11.dtd">
<!-- Created with Vectornator (http://vectornator.io/) -->
<svg height="100%" stroke-miterlimit="10" style="fill-rule:nonzero;clip-rule:evenodd;stroke-linecap:round;stroke-linejoin:round;" version="1.1" viewBox="420.998 333.655 201.575 117.492" width="100%" xml:space="preserve" xmlns="http://www.w3.org/2000/svg" xmlns:vectornator="http://vectornator.io" xmlns:xlink="http://www.w3.org/1999/xlink">
<defs>
<linearGradient gradientTransform="matrix(1 0 0 1 0 0)" gradientUnits="userSpaceOnUse" id="LinearGradient" x1="420.998" x2="485.28" y1="392.403" y2="392.403">
<stop offset="0" stop-color="#2f55a4"/>
<stop offset="1" stop-color="#2f55a4"/>
</linearGradient>
<linearGradient gradientTransform="matrix(1 0 0 1 0 0)" gradientUnits="userSpaceOnUse" id="LinearGradient_2" x1="489.644" x2="553.926" y1="392.403" y2="392.403">
<stop offset="0" stop-color="#2f55a4"/>
<stop offset="1" stop-color="#2f55a4"/>
</linearGradient>
<linearGradient gradientTransform="matrix(1 0 0 1 0 0)" gradientUnits="userSpaceOnUse" id="LinearGradient_3" x1="558.29" x2="622.573" y1="392.403" y2="392.403">
<stop offset="0" stop-color="#2f55a4"/>
<stop offset="1" stop-color="#2f55a4"/>
</linearGradient>
<linearGradient gradientTransform="matrix(1 0 0 1 0 0)" gradientUnits="userSpaceOnUse" id="LinearGradient_4" x1="488.614" x2="554.476" y1="392.398" y2="392.398">
<stop offset="0" stop-color="#2f55a4"/>
<stop offset="1" stop-color="#2f55a4"/>
</linearGradient>
</defs>
<clipPath id="ArtboardFrame">
<rect height="117.492" width="201.575" x="420.998" y="333.655"/>
</clipPath>
<g clip-path="url(#ArtboardFrame)" id="Layer" vectornator:layerName="Layer">
<g opacity="1" vectornator:layerName="Agrupar 12">
<path d="M451.544 378.976C453.894 378.976 455.069 377.801 455.069 375.452L455.069 359.003C455.069 357.772 454.453 357.157 453.223 357.157C451.88 357.157 451.209 357.772 451.209 359.003L451.209 375.116L420.998 375.116L420.998 343.73C420.998 340.709 421.921 338.275 423.767 336.429C425.613 334.583 428.047 333.66 431.068 333.66L475.21 333.66C478.231 333.66 480.664 334.583 482.511 336.429C484.357 338.275 485.28 340.709 485.28 343.73L485.28 377.633C485.28 380.095 484.665 382.193 483.434 383.927C482.203 385.662 480.525 386.809 478.399 387.368C480.525 387.928 482.203 389.047 483.434 390.725C484.665 392.403 485.28 394.473 485.28 396.935L485.28 441.077C485.28 444.098 484.357 446.532 482.511 448.378C480.664 450.224 478.231 451.147 475.21 451.147L431.068 451.147C428.047 451.147 425.613 450.224 423.767 448.378C421.921 446.532 420.998 444.098 420.998 441.077L420.998 409.187L451.209 409.187L451.209 425.803C451.209 427.034 451.88 427.65 453.223 427.65C454.453 427.65 455.069 427.034 455.069 425.803L455.069 408.852C455.069 406.502 453.894 405.327 451.544 405.327L433.418 405.327L433.418 378.976L451.544 378.976Z" fill="url(#LinearGradient)" fill-rule="nonzero" opacity="1" stroke="none"/>
<path d="M553.926 451.147L523.715 451.147L523.715 426.978L499.714 426.978C496.693 426.978 494.259 426.055 492.413 424.209C490.567 422.363 489.644 419.929 489.644 416.908L489.644 333.66L519.855 333.66L519.855 400.627C519.855 402.53 520.806 403.481 522.708 403.481L523.715 403.481L523.715 333.66L553.926 333.66L553.926 451.147Z" fill="url(#LinearGradient_2)" fill-rule="nonzero" opacity="1" stroke="none"/>
<path d="M588.837 378.976C591.187 378.976 592.362 377.801 592.362 375.452L592.362 359.003C592.362 357.772 591.746 357.157 590.515 357.157C589.173 357.157 588.501 357.772 588.501 359.003L588.501 375.116L558.29 375.116L558.29 343.73C558.29 340.709 559.213 338.275 561.059 336.429C562.906 334.583 565.339 333.66 568.36 333.66L612.502 333.66C615.523 333.66 617.957 334.583 619.803 336.429C621.649 338.275 622.573 340.709 622.573 343.73L622.573 377.633C622.573 380.095 621.957 382.193 620.726 383.927C619.496 385.662 617.817 386.809 615.691 387.368C617.817 387.928 619.496 389.047 620.726 390.725C621.957 392.403 622.573 394.473 622.573 396.935L622.573 441.077C622.573 444.098 621.649 446.532 619.803 448.378C617.957 450.224 615.523 451.147 612.502 451.147L568.36 451.147C565.339 451.147 562.906 450.224 561.059 448.378C559.213 446.532 558.29 444.098 558.29 441.077L558.29 409.187L588.501 409.187L588.501 425.803C588.501 427.034 589.173 427.65 590.515 427.65C591.746 427.65 592.362 427.034 592.362 425.803L592.362 408.852C592.362 406.502 591.187 405.327 588.837 405.327L570.71 405.327L570.71 378.976L588.837 378.976Z" fill="url(#LinearGradient_3)" fill-rule="nonzero" opacity="1" stroke="none"/>
<path d="M517.311 333.655L488.614 398.692L488.614 430.312L527.052 430.312L527.052 451.142L554.476 451.142L554.476 333.655L517.311 333.655ZM527.052 376.813L527.052 398.692L518.06 398.692L527.052 376.813Z" fill="url(#LinearGradient_4)" fill-rule="nonzero" opacity="0" stroke="none" vectornator:layerName="Curva 1"/>
</g>
</g>
</svg>
