<?xml version="1.0" encoding="UTF-8" standalone="no"?>
<!DOCTYPE svg PUBLIC "-//W3C//DTD SVG 1.1//EN" "http://www.w3.org/Graphics/SVG/1.1/DTD/svg11.dtd">
<!-- Created with Vectornator (http://vectornator.io/) -->
<svg height="100%" stroke-miterlimit="10" style="fill-rule:nonzero;clip-rule:evenodd;stroke-linecap:round;stroke-linejoin:round;" version="1.1" viewBox="474.974 297.675 274.13 172.388" width="100%" xml:space="preserve" xmlns="http://www.w3.org/2000/svg" xmlns:vectornator="http://vectornator.io" xmlns:xlink="http://www.w3.org/1999/xlink">
<defs>
<linearGradient gradientTransform="matrix(1 0 0 1.00166 -41.4113 -83.0972)" gradientUnits="userSpaceOnUse" id="LinearGradient" x1="516.385" x2="790.515" y1="466.193" y2="466.193">
<stop offset="0.00105101" stop-color="#06b406"/>
<stop offset="1" stop-color="#027d05"/>
</linearGradient>
</defs>
<clipPath id="ArtboardFrame">
<rect height="172.388" width="274.13" x="474.974" y="297.675"/>
</clipPath>
<g clip-path="url(#ArtboardFrame)" id="Layer" vectornator:layerName="Layer">
<g opacity="1" vectornator:layerName="Agrupar 15">
<path d="M474.974 307.692C474.974 302.16 479.451 297.675 484.974 297.675L739.104 297.675C744.627 297.675 749.104 302.16 749.104 307.692L749.104 460.046C749.104 465.578 744.627 470.063 739.104 470.063L484.974 470.063C479.451 470.063 474.974 465.578 474.974 460.046L474.974 307.692Z" fill="url(#LinearGradient)" fill-rule="nonzero" opacity="1" stroke="none" vectornator:layerName="Retângulo 1"/>
<path d="M491.049 319.096C491.049 314.392 495.001 310.579 499.876 310.579L724.202 310.579C729.077 310.579 733.029 314.392 733.029 319.096L733.029 448.642C733.029 453.346 729.077 457.159 724.202 457.159L499.876 457.159C495.001 457.159 491.049 453.346 491.049 448.642L491.049 319.096Z" fill="#06b406" fill-opacity="0.0425347" fill-rule="nonzero" opacity="1" stroke="#ffffff" stroke-linecap="butt" stroke-linejoin="round" stroke-width="6" vectornator:layerName="Retângulo 2"/>
<text fill="#ffffff" font-family="NewakeDemo" font-size="125" opacity="1" stroke="none" text-anchor="start" transform="matrix(1 0 0 1 506.851 334.01)" vectornator:layerName="Texto 5" vectornator:width="210.375" x="0" y="0">
<tspan textLength="207.375" x="0" y="96">343</tspan>
</text>
<text fill="#ffffff" font-family="BebasNeue-Regular" font-size="150" opacity="0" stroke="none" text-anchor="start" transform="matrix(1 0 0 1 518.986 304.127)" vectornator:layerName="Texto 2" vectornator:width="186.105" x="0" y="0">
<tspan textLength="180" x="0" y="135">343</tspan>
</text>
<text fill="#ffffff" font-family="DOCK11-Heavy" font-size="113" opacity="0" stroke="none" text-anchor="start" transform="matrix(1 0 0 1 510.351 339.027)" vectornator:layerName="Texto 3" vectornator:width="203.375" x="0" y="0">
<tspan textLength="198.767" x="0" y="85">343</tspan>
</text>
<g opacity="0" vectornator:layerName="Agrupar 16">
<path d="M541.798 370.439C544.148 370.439 545.323 369.264 545.323 366.914L545.323 350.466C545.323 349.235 544.707 348.62 543.476 348.62C542.134 348.62 541.462 349.235 541.462 350.466L541.462 366.579L511.251 366.579L511.251 335.193C511.251 332.172 512.174 329.738 514.021 327.892C515.867 326.045 518.301 325.122 521.322 325.122L565.463 325.122C568.485 325.122 570.918 326.045 572.764 327.892C574.611 329.738 575.534 332.172 575.534 335.193L575.534 369.096C575.534 371.558 574.918 373.656 573.688 375.39C572.457 377.125 570.778 378.271 568.652 378.831C570.778 379.39 572.457 380.509 573.688 382.188C574.918 383.866 575.534 385.936 575.534 388.398L575.534 432.54C575.534 435.561 574.611 437.994 572.764 439.841C570.918 441.687 568.485 442.61 565.463 442.61L521.322 442.61C518.301 442.61 515.867 441.687 514.021 439.841C512.174 437.994 511.251 435.561 511.251 432.54L511.251 400.65L541.462 400.65L541.462 417.266C541.462 418.497 542.134 419.112 543.476 419.112C544.707 419.112 545.323 418.497 545.323 417.266L545.323 400.314C545.323 397.965 544.148 396.79 541.798 396.79L523.671 396.79L523.671 370.439L541.798 370.439Z" fill="#ffffff" fill-rule="nonzero" opacity="1" stroke="none"/>
<path d="M644.18 442.61L613.969 442.61L613.969 418.441L589.968 418.441C586.947 418.441 584.513 417.518 582.667 415.672C580.821 413.825 579.898 411.392 579.898 408.371L579.898 325.122L610.109 325.122L610.109 392.09C610.109 393.992 611.06 394.944 612.962 394.944L613.969 394.944L613.969 325.122L644.18 325.122L644.18 442.61Z" fill="#ffffff" fill-rule="nonzero" opacity="0" stroke="none"/>
<path d="M679.091 370.439C681.44 370.439 682.615 369.264 682.615 366.914L682.615 350.466C682.615 349.235 682 348.62 680.769 348.62C679.426 348.62 678.755 349.235 678.755 350.466L678.755 366.579L648.544 366.579L648.544 335.193C648.544 332.172 649.467 329.738 651.313 327.892C653.159 326.045 655.593 325.122 658.614 325.122L702.756 325.122C705.777 325.122 708.211 326.045 710.057 327.892C711.903 329.738 712.826 332.172 712.826 335.193L712.826 369.096C712.826 371.558 712.211 373.656 710.98 375.39C709.749 377.125 708.071 378.271 705.945 378.831C708.071 379.39 709.749 380.509 710.98 382.188C712.211 383.866 712.826 385.936 712.826 388.398L712.826 432.54C712.826 435.561 711.903 437.994 710.057 439.841C708.211 441.687 705.777 442.61 702.756 442.61L658.614 442.61C655.593 442.61 653.159 441.687 651.313 439.841C649.467 437.994 648.544 435.561 648.544 432.54L648.544 400.65L678.755 400.65L678.755 417.266C678.755 418.497 679.426 419.112 680.769 419.112C682 419.112 682.615 418.497 682.615 417.266L682.615 400.314C682.615 397.965 681.44 396.79 679.091 396.79L660.964 396.79L660.964 370.439L679.091 370.439Z" fill="#ffffff" fill-rule="nonzero" opacity="1" stroke="none"/>
<path d="M602.403 325.119C601.191 325.262 600.337 326.103 599.996 327.244L599.715 328.088L578.871 390.15L578.871 418.557L578.871 419.15C579.037 420.57 580.129 421.655 581.559 421.775L581.996 421.775L617.309 421.775L617.309 442.619L644.715 442.619L644.715 328.119C644.716 328.094 644.746 328.082 644.746 328.057C644.746 326.426 643.436 325.119 641.809 325.119L603.028 325.119L602.403 325.119ZM617.309 358.4L617.309 390.15L608.309 390.15L617.309 358.4Z" fill="#ffffff" fill-rule="nonzero" opacity="1" stroke="none" vectornator:layerName="Curva 1"/>
</g>
</g>
</g>
</svg>
