<?xml version="1.0" encoding="UTF-8" standalone="no"?>
<!DOCTYPE svg PUBLIC "-//W3C//DTD SVG 1.1//EN" "http://www.w3.org/Graphics/SVG/1.1/DTD/svg11.dtd">
<!-- Created with Vectornator (http://vectornator.io/) -->
<svg height="100%" stroke-miterlimit="10" style="fill-rule:nonzero;clip-rule:evenodd;stroke-linecap:round;stroke-linejoin:round;" version="1.1" viewBox="420.997 121.433 201.575 117.5" width="100%" xml:space="preserve" xmlns="http://www.w3.org/2000/svg" xmlns:vectornator="http://vectornator.io" xmlns:xlink="http://www.w3.org/1999/xlink">
<defs/>
<clipPath id="ArtboardFrame">
<rect height="117.5" width="201.575" x="420.997" y="121.433"/>
</clipPath>
<g clip-path="url(#ArtboardFrame)" id="Layer" vectornator:layerName="Layer">
<g opacity="1" vectornator:layerName="Agrupar 14">
<path d="M451.544 166.752C453.894 166.752 455.069 165.578 455.069 163.228L455.069 146.78C455.069 145.549 454.453 144.933 453.223 144.933C451.88 144.933 451.209 145.549 451.209 146.78L451.209 162.892L420.997 162.892L420.997 131.506C420.997 128.485 421.921 126.051 423.767 124.205C425.613 122.359 428.047 121.436 431.068 121.436L475.21 121.436C478.231 121.436 480.664 122.359 482.511 124.205C484.357 126.051 485.28 128.485 485.28 131.506L485.28 165.41C485.28 167.871 484.665 169.969 483.434 171.704C482.203 173.438 480.525 174.585 478.399 175.144C480.525 175.704 482.203 176.823 483.434 178.501C484.665 180.18 485.28 182.25 485.28 184.711L485.28 228.853C485.28 231.874 484.357 234.308 482.511 236.154C480.664 238 478.231 238.923 475.21 238.923L431.068 238.923C428.047 238.923 425.613 238 423.767 236.154C421.921 234.308 420.997 231.874 420.997 228.853L420.997 196.964L451.209 196.964L451.209 213.58C451.209 214.81 451.88 215.426 453.223 215.426C454.453 215.426 455.069 214.81 455.069 213.58L455.069 196.628C455.069 194.278 453.894 193.103 451.544 193.103L433.418 193.103L433.418 166.752L451.544 166.752Z" fill="#000002" fill-rule="nonzero" opacity="1" stroke="none"/>
<path d="M553.926 238.923L523.715 238.923L523.715 214.755L499.714 214.755C496.693 214.755 494.259 213.831 492.413 211.985C490.567 210.139 489.644 207.705 489.644 204.684L489.644 121.436L519.855 121.436L519.855 188.404C519.855 190.306 520.806 191.257 522.708 191.257L523.715 191.257L523.715 121.436L553.926 121.436L553.926 238.923Z" fill="#000002" fill-rule="nonzero" opacity="0" stroke="none"/>
<path d="M588.837 166.752C591.187 166.752 592.362 165.578 592.362 163.228L592.362 146.78C592.362 145.549 591.746 144.933 590.515 144.933C589.173 144.933 588.501 145.549 588.501 146.78L588.501 162.892L558.29 162.892L558.29 131.506C558.29 128.485 559.213 126.051 561.059 124.205C562.906 122.359 565.339 121.436 568.36 121.436L612.502 121.436C615.523 121.436 617.957 122.359 619.803 124.205C621.649 126.051 622.573 128.485 622.573 131.506L622.573 165.41C622.573 167.871 621.957 169.969 620.726 171.704C619.496 173.438 617.817 174.585 615.691 175.144C617.817 175.704 619.496 176.823 620.726 178.501C621.957 180.18 622.573 182.25 622.573 184.711L622.573 228.853C622.573 231.874 621.649 234.308 619.803 236.154C617.957 238 615.523 238.923 612.502 238.923L568.36 238.923C565.339 238.923 562.906 238 561.059 236.154C559.213 234.308 558.29 231.874 558.29 228.853L558.29 196.964L588.501 196.964L588.501 213.58C588.501 214.81 589.173 215.426 590.515 215.426C591.746 215.426 592.362 214.81 592.362 213.58L592.362 196.628C592.362 194.278 591.187 193.103 588.837 193.103L570.71 193.103L570.71 166.752L588.837 166.752Z" fill="#000002" fill-rule="nonzero" opacity="1" stroke="none"/>
<path d="M512.149 121.433C510.937 121.575 510.084 122.416 509.743 123.558L509.461 124.401L488.618 186.464L488.618 214.87L488.618 215.464C488.783 216.883 489.875 217.968 491.305 218.089L491.743 218.089L527.055 218.089L527.055 238.933L554.461 238.933L554.461 124.433C554.462 124.408 554.493 124.395 554.493 124.37C554.493 122.74 553.182 121.433 551.555 121.433L512.774 121.433L512.149 121.433ZM527.055 154.714L527.055 186.464L518.055 186.464L527.055 154.714Z" fill="#000002" fill-rule="nonzero" opacity="1" stroke="none" vectornator:layerName="Curva 1"/>
</g>
</g>
</svg>
